<?xml version="1.0" encoding="utf-8"?>
<svg version="1.1" xmlns:xlink="http://www.w3.org/1999/xlink" width="260px" height="262px" xmlns="http://www.w3.org/2000/svg">
  <defs>
    <pattern id="BGPattern" patternUnits="userSpaceOnUse" alignment="0 0" imageRepeat="None" />
    <mask fill="white" id="Clip972">
      <path d="M 0 131  C 0 57.63999999999999  57.199999999999996 0  130 0  C 202.8 0  260 57.63999999999999  260 131  C 260 204.36  202.8 262  130 262  C 57.199999999999996 262  0 204.36  0 131  Z " fill-rule="evenodd" />
    </mask>
  </defs>
  <g transform="matrix(1 0 0 1 -80 -237 )">
    <path d="M 0 131  C 0 57.63999999999999  57.199999999999996 0  130 0  C 202.8 0  260 57.63999999999999  260 131  C 260 204.36  202.8 262  130 262  C 57.199999999999996 262  0 204.36  0 131  Z " fill-rule="nonzero" fill="rgba(250, 205, 145, 1)" stroke="none" transform="matrix(1 0 0 1 80 237 )" class="fill" />
    <path d="M 0 131  C 0 57.63999999999999  57.199999999999996 0  130 0  C 202.8 0  260 57.63999999999999  260 131  C 260 204.36  202.8 262  130 262  C 57.199999999999996 262  0 204.36  0 131  Z " stroke-width="0" stroke-dasharray="0" stroke="rgba(121, 121, 121, 1)" fill="none" transform="matrix(1 0 0 1 80 237 )" class="stroke" mask="url(#Clip972)" />
  </g>
</svg>