<?xml version="1.0" encoding="utf-8"?>
<svg version="1.1" xmlns:xlink="http://www.w3.org/1999/xlink" width="210px" height="211px" xmlns="http://www.w3.org/2000/svg">
  <defs>
    <pattern id="BGPattern" patternUnits="userSpaceOnUse" alignment="0 0" imageRepeat="None" />
    <mask fill="white" id="Clip973">
      <path d="M 0 105.5  C 0 46.419999999999995  46.199999999999996 0  105 0  C 163.8 0  210 46.419999999999995  210 105.5  C 210 164.58  163.8 211  105 211  C 46.199999999999996 211  0 164.58  0 105.5  Z " fill-rule="evenodd" />
    </mask>
  </defs>
  <g transform="matrix(1 0 0 1 -105 -262 )">
    <path d="M 0 105.5  C 0 46.419999999999995  46.199999999999996 0  105 0  C 163.8 0  210 46.419999999999995  210 105.5  C 210 164.58  163.8 211  105 211  C 46.199999999999996 211  0 164.58  0 105.5  Z " fill-rule="nonzero" fill="rgba(255, 255, 255, 1)" stroke="none" transform="matrix(1 0 0 1 105 262 )" class="fill" />
    <path d="M 0 105.5  C 0 46.419999999999995  46.199999999999996 0  105 0  C 163.8 0  210 46.419999999999995  210 105.5  C 210 164.58  163.8 211  105 211  C 46.199999999999996 211  0 164.58  0 105.5  Z " stroke-width="0" stroke-dasharray="0" stroke="rgba(121, 121, 121, 1)" fill="none" transform="matrix(1 0 0 1 105 262 )" class="stroke" mask="url(#Clip973)" />
  </g>
</svg>