<?xml version="1.0" encoding="utf-8"?>
<svg version="1.1" xmlns:xlink="http://www.w3.org/1999/xlink" width="406px" height="209px" xmlns="http://www.w3.org/2000/svg">
  <defs>
    <pattern id="BGPattern" patternUnits="userSpaceOnUse" alignment="0 0" imageRepeat="None" />
    <mask fill="white" id="Clip988">
      <path d="M 5 209  L 0 49  L 28 0  L 380 0  L 405.0442477876107 49  L 395 209  L 5 209  Z " fill-rule="evenodd" />
    </mask>
  </defs>
  <g transform="matrix(1 0 0 1 -10 -11 )">
    <path d="M 5 209  L 0 49  L 28 0  L 380 0  L 405.0442477876107 49  L 395 209  L 5 209  Z " fill-rule="nonzero" fill="rgba(252, 195, 111, 1)" stroke="none" transform="matrix(1 0 0 1 10 11 )" class="fill" />
    <path d="M 5 209  L 0 49  L 28 0  L 380 0  L 405.0442477876107 49  L 395 209  L 5 209  Z " stroke-width="0" stroke-dasharray="0" stroke="rgba(121, 121, 121, 1)" fill="none" transform="matrix(1 0 0 1 10 11 )" class="stroke" mask="url(#Clip988)" />
  </g>
</svg>