<?xml version="1.0" encoding="utf-8"?>
<svg version="1.1" xmlns:xlink="http://www.w3.org/1999/xlink" width="25px" height="20px" xmlns="http://www.w3.org/2000/svg">
  <defs>
    <pattern id="BGPattern" patternUnits="userSpaceOnUse" alignment="0 0" imageRepeat="None" />
    <mask fill="white" id="Clip989">
      <path d="M 23.081752232142858 18.046875  C 23.170107886904763 17.956912878787882  23.214285714285715 17.85037878787879  23 17.727272727272727  L 23 6.818181818181818  C 22.91666666666667 7.159090909090908  22.595796130952387 7.471590909090908  22.251674107142858 7.755681818181818  C 19.759114583333336 9.706439393939393  17.77808779761905 11.306818181818183  16.30859375 12.556818181818183  C 15.834263392857142 12.964015151515149  15.448288690476192 13.28125  15.150669642857142 13.508522727272727  C 14.853050595238097 13.735795454545453  14.45079985119048 13.965435606060606  13.943917410714285 14.197443181818183  C 13.437034970238097 14.429450757575758  12.960379464285715 14.545454545454547  12.513950892857142 14.545454545454547  L 12.5 14.545454545454547  L 12.486049107142858 14.545454545454547  C 12.039620535714286 14.545454545454547  11.562965029761905 14.429450757575758  11.056082589285714 14.197443181818183  C 10.549200148809526 13.965435606060606  10.146949404761905 13.735795454545453  9.849330357142858 13.508522727272727  C 9.55171130952381 13.28125  9.165736607142858 12.964015151515149  8.69140625 12.556818181818183  C 7.221912202380953 11.306818181818183  5.240885416666668 9.706439393939393  2.748325892857143 7.755681818181818  C 2.404203869047619 7.471590909090908  2.0833333333333335 7.159090909090908  2 6.818181818181818  L 2 17.727272727272727  C 1.7857142857142856 17.85037878787879  1.8298921130952384 17.956912878787882  1.9182477678571428 18.046875  C 2.0066034226190474 18.136837121212118  2.111235119047619 18.18181818181818  2.232142857142857 18  L 22.767857142857142 18  C 22.88876488095238 18.18181818181818  22.993396577380953 18.136837121212118  23.081752232142858 18.046875  Z M 22.565569196428573 4.666193181818182  C 22.998046875 3.979640151515149  23.214285714285715 3.3570075757575757  23.214285714285715 2.798295454545454  L 23.214285714285715 2.642045454545454  L 23.214285714285715 2.4502840909090917  C 23.214285714285715 2.4502840909090917  23.211960565476193 2.3887310606060574  23.207310267857142 2.265625  C 23.202659970238095 2.142518939393938  23.188709077380953 2.0833333333333304  23.165457589285715 2.088068181818181  C 23.142206101190478 2.09280303030303  23.116629464285715 2.0501893939393923  23.088727678571427 1.960227272727273  C 23.060825892857142 1.8702651515151492  23.018973214285715 1.8347537878787867  22.963169642857142 1.8536931818181812  C 22.907366071428573 1.8726325757575757  22.842261904761905 1.8607954545454541  22.767857142857142 2  L 2.232142857142857 2  C 2.111235119047619 1.8181818181818188  2.0066034226190474 1.8631628787878762  1.9182477678571428 1.953125  C 1.8298921130952384 2.0430871212121193  1.7857142857142856 2.149621212121211  1.7857142857142856 2.272727272727273  C 1.7857142857142856 3.8636363636363646  2.4693080357142856 5.20833333333333  3.8364955357142856 6.306818181818182  C 5.631510416666668 7.746212121212119  7.496279761904763 9.247159090909092  9.430803571428571 10.809659090909092  C 9.486607142857142 10.857007575757574  9.64936755952381 10.996685606060606  9.919084821428571 11.228693181818183  C 10.188802083333334 11.460700757575758  10.402715773809526 11.638257575757574  10.560825892857142 11.761363636363637  C 10.718936011904765 11.884469696969695  10.925874255952381 12.033617424242422  11.181640625 12.208806818181817  C 11.437406994047619 12.383996212121211  11.672247023809526 12.514204545454547  11.886160714285714 12.599431818181817  C 12.100074404761905 12.684659090909092  12.300037202380953 12.727272727272727  12.486049107142858 12.727272727272727  L 12.5 12.727272727272727  L 12.513950892857142 12.727272727272727  C 12.69996279761905 12.727272727272727  12.899925595238097 12.684659090909092  13.113839285714285 12.599431818181817  C 13.32775297619048 12.514204545454547  13.562593005952381 12.383996212121211  13.818359375 12.208806818181817  C 14.074125744047619 12.033617424242422  14.281063988095239 11.884469696969695  14.439174107142858 11.761363636363637  C 14.59728422619048 11.638257575757574  14.811197916666668 11.460700757575758  15.080915178571427 11.228693181818183  C 15.350632440476192 10.996685606060606  15.513392857142858 10.857007575757574  15.569196428571427 10.809659090909092  C 17.503720238095237 9.247159090909092  19.368489583333336 7.746212121212119  21.163504464285715 6.306818181818182  C 21.665736607142858 5.899621212121211  22.133091517857142 5.352746212121211  22.565569196428573 4.666193181818182  Z M 24.344308035714285 0.6676136363636354  C 24.781436011904763 1.1126893939393923  25 1.647727272727273  25 2.272727272727273  L 25 17.727272727272727  C 25 18.352272727272727  24.781436011904763 18.88731060606061  24.344308035714285 19.332386363636363  C 23.907180059523814 19.777462121212118  23.381696428571434 20  22.767857142857142 20  L 2.232142857142857 20  C 1.6183035714285716 20  1.0928199404761907 19.777462121212118  0.6556919642857143 19.332386363636363  C 0.2185639880952381 18.88731060606061  0 18.352272727272727  0 17.727272727272727  L 0 2.272727272727273  C 0 1.647727272727273  0.2185639880952381 1.1126893939393923  0.6556919642857143 0.6676136363636354  C 1.0928199404761907 0.22253787878787623  1.6183035714285716 0  2.232142857142857 0  L 22.767857142857142 0  C 23.381696428571434 0  23.907180059523814 0.22253787878787623  24.344308035714285 0.6676136363636354  Z " fill-rule="evenodd" />
    </mask>
  </defs>
  <g transform="matrix(1 0 0 1 -350 -64 )">
    <path d="M 23.081752232142858 18.046875  C 23.170107886904763 17.956912878787882  23.214285714285715 17.85037878787879  23 17.727272727272727  L 23 6.818181818181818  C 22.91666666666667 7.159090909090908  22.595796130952387 7.471590909090908  22.251674107142858 7.755681818181818  C 19.759114583333336 9.706439393939393  17.77808779761905 11.306818181818183  16.30859375 12.556818181818183  C 15.834263392857142 12.964015151515149  15.448288690476192 13.28125  15.150669642857142 13.508522727272727  C 14.853050595238097 13.735795454545453  14.45079985119048 13.965435606060606  13.943917410714285 14.197443181818183  C 13.437034970238097 14.429450757575758  12.960379464285715 14.545454545454547  12.513950892857142 14.545454545454547  L 12.5 14.545454545454547  L 12.486049107142858 14.545454545454547  C 12.039620535714286 14.545454545454547  11.562965029761905 14.429450757575758  11.056082589285714 14.197443181818183  C 10.549200148809526 13.965435606060606  10.146949404761905 13.735795454545453  9.849330357142858 13.508522727272727  C 9.55171130952381 13.28125  9.165736607142858 12.964015151515149  8.69140625 12.556818181818183  C 7.221912202380953 11.306818181818183  5.240885416666668 9.706439393939393  2.748325892857143 7.755681818181818  C 2.404203869047619 7.471590909090908  2.0833333333333335 7.159090909090908  2 6.818181818181818  L 2 17.727272727272727  C 1.7857142857142856 17.85037878787879  1.8298921130952384 17.956912878787882  1.9182477678571428 18.046875  C 2.0066034226190474 18.136837121212118  2.111235119047619 18.18181818181818  2.232142857142857 18  L 22.767857142857142 18  C 22.88876488095238 18.18181818181818  22.993396577380953 18.136837121212118  23.081752232142858 18.046875  Z M 22.565569196428573 4.666193181818182  C 22.998046875 3.979640151515149  23.214285714285715 3.3570075757575757  23.214285714285715 2.798295454545454  L 23.214285714285715 2.642045454545454  L 23.214285714285715 2.4502840909090917  C 23.214285714285715 2.4502840909090917  23.211960565476193 2.3887310606060574  23.207310267857142 2.265625  C 23.202659970238095 2.142518939393938  23.188709077380953 2.0833333333333304  23.165457589285715 2.088068181818181  C 23.142206101190478 2.09280303030303  23.116629464285715 2.0501893939393923  23.088727678571427 1.960227272727273  C 23.060825892857142 1.8702651515151492  23.018973214285715 1.8347537878787867  22.963169642857142 1.8536931818181812  C 22.907366071428573 1.8726325757575757  22.842261904761905 1.8607954545454541  22.767857142857142 2  L 2.232142857142857 2  C 2.111235119047619 1.8181818181818188  2.0066034226190474 1.8631628787878762  1.9182477678571428 1.953125  C 1.8298921130952384 2.0430871212121193  1.7857142857142856 2.149621212121211  1.7857142857142856 2.272727272727273  C 1.7857142857142856 3.8636363636363646  2.4693080357142856 5.20833333333333  3.8364955357142856 6.306818181818182  C 5.631510416666668 7.746212121212119  7.496279761904763 9.247159090909092  9.430803571428571 10.809659090909092  C 9.486607142857142 10.857007575757574  9.64936755952381 10.996685606060606  9.919084821428571 11.228693181818183  C 10.188802083333334 11.460700757575758  10.402715773809526 11.638257575757574  10.560825892857142 11.761363636363637  C 10.718936011904765 11.884469696969695  10.925874255952381 12.033617424242422  11.181640625 12.208806818181817  C 11.437406994047619 12.383996212121211  11.672247023809526 12.514204545454547  11.886160714285714 12.599431818181817  C 12.100074404761905 12.684659090909092  12.300037202380953 12.727272727272727  12.486049107142858 12.727272727272727  L 12.5 12.727272727272727  L 12.513950892857142 12.727272727272727  C 12.69996279761905 12.727272727272727  12.899925595238097 12.684659090909092  13.113839285714285 12.599431818181817  C 13.32775297619048 12.514204545454547  13.562593005952381 12.383996212121211  13.818359375 12.208806818181817  C 14.074125744047619 12.033617424242422  14.281063988095239 11.884469696969695  14.439174107142858 11.761363636363637  C 14.59728422619048 11.638257575757574  14.811197916666668 11.460700757575758  15.080915178571427 11.228693181818183  C 15.350632440476192 10.996685606060606  15.513392857142858 10.857007575757574  15.569196428571427 10.809659090909092  C 17.503720238095237 9.247159090909092  19.368489583333336 7.746212121212119  21.163504464285715 6.306818181818182  C 21.665736607142858 5.899621212121211  22.133091517857142 5.352746212121211  22.565569196428573 4.666193181818182  Z M 24.344308035714285 0.6676136363636354  C 24.781436011904763 1.1126893939393923  25 1.647727272727273  25 2.272727272727273  L 25 17.727272727272727  C 25 18.352272727272727  24.781436011904763 18.88731060606061  24.344308035714285 19.332386363636363  C 23.907180059523814 19.777462121212118  23.381696428571434 20  22.767857142857142 20  L 2.232142857142857 20  C 1.6183035714285716 20  1.0928199404761907 19.777462121212118  0.6556919642857143 19.332386363636363  C 0.2185639880952381 18.88731060606061  0 18.352272727272727  0 17.727272727272727  L 0 2.272727272727273  C 0 1.647727272727273  0.2185639880952381 1.1126893939393923  0.6556919642857143 0.6676136363636354  C 1.0928199404761907 0.22253787878787623  1.6183035714285716 0  2.232142857142857 0  L 22.767857142857142 0  C 23.381696428571434 0  23.907180059523814 0.22253787878787623  24.344308035714285 0.6676136363636354  Z " fill-rule="nonzero" fill="rgba(255, 255, 255, 1)" stroke="none" transform="matrix(1 0 0 1 350 64 )" class="fill" />
    <path d="M 23.081752232142858 18.046875  C 23.170107886904763 17.956912878787882  23.214285714285715 17.85037878787879  23 17.727272727272727  L 23 6.818181818181818  C 22.91666666666667 7.159090909090908  22.595796130952387 7.471590909090908  22.251674107142858 7.755681818181818  C 19.759114583333336 9.706439393939393  17.77808779761905 11.306818181818183  16.30859375 12.556818181818183  C 15.834263392857142 12.964015151515149  15.448288690476192 13.28125  15.150669642857142 13.508522727272727  C 14.853050595238097 13.735795454545453  14.45079985119048 13.965435606060606  13.943917410714285 14.197443181818183  C 13.437034970238097 14.429450757575758  12.960379464285715 14.545454545454547  12.513950892857142 14.545454545454547  L 12.5 14.545454545454547  L 12.486049107142858 14.545454545454547  C 12.039620535714286 14.545454545454547  11.562965029761905 14.429450757575758  11.056082589285714 14.197443181818183  C 10.549200148809526 13.965435606060606  10.146949404761905 13.735795454545453  9.849330357142858 13.508522727272727  C 9.55171130952381 13.28125  9.165736607142858 12.964015151515149  8.69140625 12.556818181818183  C 7.221912202380953 11.306818181818183  5.240885416666668 9.706439393939393  2.748325892857143 7.755681818181818  C 2.404203869047619 7.471590909090908  2.0833333333333335 7.159090909090908  2 6.818181818181818  L 2 17.727272727272727  C 1.7857142857142856 17.85037878787879  1.8298921130952384 17.956912878787882  1.9182477678571428 18.046875  C 2.0066034226190474 18.136837121212118  2.111235119047619 18.18181818181818  2.232142857142857 18  L 22.767857142857142 18  C 22.88876488095238 18.18181818181818  22.993396577380953 18.136837121212118  23.081752232142858 18.046875  Z " stroke-width="0" stroke-dasharray="0" stroke="rgba(255, 255, 255, 0)" fill="none" transform="matrix(1 0 0 1 350 64 )" class="stroke" mask="url(#Clip989)" />
    <path d="M 22.565569196428573 4.666193181818182  C 22.998046875 3.979640151515149  23.214285714285715 3.3570075757575757  23.214285714285715 2.798295454545454  L 23.214285714285715 2.642045454545454  L 23.214285714285715 2.4502840909090917  C 23.214285714285715 2.4502840909090917  23.211960565476193 2.3887310606060574  23.207310267857142 2.265625  C 23.202659970238095 2.142518939393938  23.188709077380953 2.0833333333333304  23.165457589285715 2.088068181818181  C 23.142206101190478 2.09280303030303  23.116629464285715 2.0501893939393923  23.088727678571427 1.960227272727273  C 23.060825892857142 1.8702651515151492  23.018973214285715 1.8347537878787867  22.963169642857142 1.8536931818181812  C 22.907366071428573 1.8726325757575757  22.842261904761905 1.8607954545454541  22.767857142857142 2  L 2.232142857142857 2  C 2.111235119047619 1.8181818181818188  2.0066034226190474 1.8631628787878762  1.9182477678571428 1.953125  C 1.8298921130952384 2.0430871212121193  1.7857142857142856 2.149621212121211  1.7857142857142856 2.272727272727273  C 1.7857142857142856 3.8636363636363646  2.4693080357142856 5.20833333333333  3.8364955357142856 6.306818181818182  C 5.631510416666668 7.746212121212119  7.496279761904763 9.247159090909092  9.430803571428571 10.809659090909092  C 9.486607142857142 10.857007575757574  9.64936755952381 10.996685606060606  9.919084821428571 11.228693181818183  C 10.188802083333334 11.460700757575758  10.402715773809526 11.638257575757574  10.560825892857142 11.761363636363637  C 10.718936011904765 11.884469696969695  10.925874255952381 12.033617424242422  11.181640625 12.208806818181817  C 11.437406994047619 12.383996212121211  11.672247023809526 12.514204545454547  11.886160714285714 12.599431818181817  C 12.100074404761905 12.684659090909092  12.300037202380953 12.727272727272727  12.486049107142858 12.727272727272727  L 12.5 12.727272727272727  L 12.513950892857142 12.727272727272727  C 12.69996279761905 12.727272727272727  12.899925595238097 12.684659090909092  13.113839285714285 12.599431818181817  C 13.32775297619048 12.514204545454547  13.562593005952381 12.383996212121211  13.818359375 12.208806818181817  C 14.074125744047619 12.033617424242422  14.281063988095239 11.884469696969695  14.439174107142858 11.761363636363637  C 14.59728422619048 11.638257575757574  14.811197916666668 11.460700757575758  15.080915178571427 11.228693181818183  C 15.350632440476192 10.996685606060606  15.513392857142858 10.857007575757574  15.569196428571427 10.809659090909092  C 17.503720238095237 9.247159090909092  19.368489583333336 7.746212121212119  21.163504464285715 6.306818181818182  C 21.665736607142858 5.899621212121211  22.133091517857142 5.352746212121211  22.565569196428573 4.666193181818182  Z " stroke-width="0" stroke-dasharray="0" stroke="rgba(255, 255, 255, 0)" fill="none" transform="matrix(1 0 0 1 350 64 )" class="stroke" mask="url(#Clip989)" />
    <path d="M 24.344308035714285 0.6676136363636354  C 24.781436011904763 1.1126893939393923  25 1.647727272727273  25 2.272727272727273  L 25 17.727272727272727  C 25 18.352272727272727  24.781436011904763 18.88731060606061  24.344308035714285 19.332386363636363  C 23.907180059523814 19.777462121212118  23.381696428571434 20  22.767857142857142 20  L 2.232142857142857 20  C 1.6183035714285716 20  1.0928199404761907 19.777462121212118  0.6556919642857143 19.332386363636363  C 0.2185639880952381 18.88731060606061  0 18.352272727272727  0 17.727272727272727  L 0 2.272727272727273  C 0 1.647727272727273  0.2185639880952381 1.1126893939393923  0.6556919642857143 0.6676136363636354  C 1.0928199404761907 0.22253787878787623  1.6183035714285716 0  2.232142857142857 0  L 22.767857142857142 0  C 23.381696428571434 0  23.907180059523814 0.22253787878787623  24.344308035714285 0.6676136363636354  Z " stroke-width="0" stroke-dasharray="0" stroke="rgba(255, 255, 255, 0)" fill="none" transform="matrix(1 0 0 1 350 64 )" class="stroke" mask="url(#Clip989)" />
  </g>
</svg>