<?xml version="1.0" encoding="utf-8"?>
<svg version="1.1" xmlns:xlink="http://www.w3.org/1999/xlink" width="15px" height="15px" xmlns="http://www.w3.org/2000/svg">
  <defs>
    <pattern id="BGPattern" patternUnits="userSpaceOnUse" alignment="0 0" imageRepeat="None" />
    <mask fill="white" id="Clip990">
      <path d="M 11.2890625 0.569196428571429  L 14.3359375 3.180803571428571  C 14.518229166666668 3.3370535714285703  14.674479166666668 3.5491071428571437  14.8046875 3.8169642857142856  C 14.934895833333334 4.084821428571429  15 4.330357142857142  15 4.553571428571429  L 15 14.196428571428571  C 15 14.419642857142858  14.908854166666666 14.609374999999998  14.7265625 14.765625  C 14.544270833333336 14.921875000000002  14.322916666666668 15  14.0625 15  L 0.9375 15  C 0.6770833333333335 15  0.45572916666666674 14.921875000000002  0.2734375 14.765625  C 0.09114583333333331 14.609374999999998  0 14.419642857142858  0 14.196428571428571  L 0 0.803571428571429  C 0 0.5803571428571425  0.09114583333333331 0.39062499999999944  0.2734375 0.234375  C 0.45572916666666674 0.07812500000000056  0.6770833333333335 0  0.9375 0  L 9.6875 0  C 9.947916666666668 0  10.234375 0.05580357142857206  10.546875 0.16741071428571452  C 10.859375 0.279017857142857  11.106770833333334 0.41294642857142794  11.2890625 0.569196428571429  Z M 10.400390625 1.3225446428571437  C 10.322265625 1.2555803571428563  10.188802083333336 1.1941964285714268  10 1.1383928571428563  L 10 4.285714285714286  L 13.671875 4.285714285714286  C 13.606770833333336 4.123883928571427  13.53515625 4.009486607142857  13.45703125 3.942522321428571  L 10.400390625 1.3225446428571437  Z M 1.25 14  L 13.75 14  L 13.75 5.357142857142857  L 9.6875 5.357142857142857  C 9.427083333333334 5.357142857142857  9.205729166666666 5.279017857142856  9.0234375 5.122767857142857  C 8.841145833333334 4.966517857142857  8.75 4.776785714285713  8.75 4.553571428571429  L 8.75 1.071428571428571  L 1.25 1.071428571428571  L 1.25 14  Z M 4.853515625 11.969866071428571  L 4.189453125 11.969866071428571  L 4.189453125 12.857142857142858  L 6.93359375 12.857142857142858  L 6.93359375 11.969866071428571  L 6.201171875 11.969866071428571  L 7.20703125 10.622209821428571  C 7.239583333333333 10.58314732142857  7.272135416666668 10.537109374999998  7.3046875 10.484095982142858  C 7.337239583333334 10.431082589285714  7.361653645833334 10.393415178571427  7.3779296875 10.37109375  C 7.394205729166668 10.34877232142857  7.405598958333334 10.337611607142858  7.412109375 10.337611607142858  L 7.431640625 10.337611607142858  C 7.438151041666668 10.359933035714285  7.454427083333334 10.387834821428571  7.48046875 10.421316964285715  C 7.493489583333332 10.44363839285714  7.508138020833333 10.464564732142856  7.524414062499999 10.484095982142858  C 7.540690104166668 10.503627232142858  7.560221354166668 10.525948660714285  7.583007812499999 10.551060267857142  C 7.605794270833334 10.576171875  7.626953125000001 10.599888392857142  7.646484375 10.622209821428571  L 8.69140625 11.969866071428571  L 7.949218749999999 11.969866071428571  L 7.949218749999999 12.857142857142858  L 10.791015625 12.857142857142858  L 10.791015625 11.969866071428571  L 10.126953125 11.969866071428571  L 8.251953125 9.684709821428571  L 10.15625 7.32421875  L 10.810546875 7.32421875  L 10.810546875 6.428571428571429  L 8.0859375 6.428571428571429  L 8.0859375 7.32421875  L 8.80859375 7.32421875  L 7.802734374999999 8.655133928571429  C 7.776692708333336 8.694196428571429  7.744140625000001 8.740234375  7.705078125 8.793247767857142  C 7.666015625000001 8.846261160714286  7.636718750000001 8.88392857142857  7.6171875 8.90625  L 7.597656249999999 8.931361607142858  L 7.578125000000001 8.931361607142858  C 7.571614583333334 8.909040178571427  7.555338541666668 8.881138392857142  7.529296875 8.84765625  C 7.490234375 8.786272321428573  7.434895833333334 8.722098214285715  7.36328125 8.655133928571429  L 6.328125 7.32421875  L 7.0703125 7.32421875  L 7.0703125 6.428571428571429  L 4.23828125 6.428571428571429  L 4.23828125 7.32421875  L 4.90234375 7.32421875  L 6.748046875 9.601004464285715  L 4.853515625 11.969866071428571  Z " fill-rule="evenodd" />
    </mask>
  </defs>
  <g transform="matrix(1 0 0 1 -220 -286 )">
    <path d="M 11.2890625 0.569196428571429  L 14.3359375 3.180803571428571  C 14.518229166666668 3.3370535714285703  14.674479166666668 3.5491071428571437  14.8046875 3.8169642857142856  C 14.934895833333334 4.084821428571429  15 4.330357142857142  15 4.553571428571429  L 15 14.196428571428571  C 15 14.419642857142858  14.908854166666666 14.609374999999998  14.7265625 14.765625  C 14.544270833333336 14.921875000000002  14.322916666666668 15  14.0625 15  L 0.9375 15  C 0.6770833333333335 15  0.45572916666666674 14.921875000000002  0.2734375 14.765625  C 0.09114583333333331 14.609374999999998  0 14.419642857142858  0 14.196428571428571  L 0 0.803571428571429  C 0 0.5803571428571425  0.09114583333333331 0.39062499999999944  0.2734375 0.234375  C 0.45572916666666674 0.07812500000000056  0.6770833333333335 0  0.9375 0  L 9.6875 0  C 9.947916666666668 0  10.234375 0.05580357142857206  10.546875 0.16741071428571452  C 10.859375 0.279017857142857  11.106770833333334 0.41294642857142794  11.2890625 0.569196428571429  Z M 10.400390625 1.3225446428571437  C 10.322265625 1.2555803571428563  10.188802083333336 1.1941964285714268  10 1.1383928571428563  L 10 4.285714285714286  L 13.671875 4.285714285714286  C 13.606770833333336 4.123883928571427  13.53515625 4.009486607142857  13.45703125 3.942522321428571  L 10.400390625 1.3225446428571437  Z M 1.25 14  L 13.75 14  L 13.75 5.357142857142857  L 9.6875 5.357142857142857  C 9.427083333333334 5.357142857142857  9.205729166666666 5.279017857142856  9.0234375 5.122767857142857  C 8.841145833333334 4.966517857142857  8.75 4.776785714285713  8.75 4.553571428571429  L 8.75 1.071428571428571  L 1.25 1.071428571428571  L 1.25 14  Z M 4.853515625 11.969866071428571  L 4.189453125 11.969866071428571  L 4.189453125 12.857142857142858  L 6.93359375 12.857142857142858  L 6.93359375 11.969866071428571  L 6.201171875 11.969866071428571  L 7.20703125 10.622209821428571  C 7.239583333333333 10.58314732142857  7.272135416666668 10.537109374999998  7.3046875 10.484095982142858  C 7.337239583333334 10.431082589285714  7.361653645833334 10.393415178571427  7.3779296875 10.37109375  C 7.394205729166668 10.34877232142857  7.405598958333334 10.337611607142858  7.412109375 10.337611607142858  L 7.431640625 10.337611607142858  C 7.438151041666668 10.359933035714285  7.454427083333334 10.387834821428571  7.48046875 10.421316964285715  C 7.493489583333332 10.44363839285714  7.508138020833333 10.464564732142856  7.524414062499999 10.484095982142858  C 7.540690104166668 10.503627232142858  7.560221354166668 10.525948660714285  7.583007812499999 10.551060267857142  C 7.605794270833334 10.576171875  7.626953125000001 10.599888392857142  7.646484375 10.622209821428571  L 8.69140625 11.969866071428571  L 7.949218749999999 11.969866071428571  L 7.949218749999999 12.857142857142858  L 10.791015625 12.857142857142858  L 10.791015625 11.969866071428571  L 10.126953125 11.969866071428571  L 8.251953125 9.684709821428571  L 10.15625 7.32421875  L 10.810546875 7.32421875  L 10.810546875 6.428571428571429  L 8.0859375 6.428571428571429  L 8.0859375 7.32421875  L 8.80859375 7.32421875  L 7.802734374999999 8.655133928571429  C 7.776692708333336 8.694196428571429  7.744140625000001 8.740234375  7.705078125 8.793247767857142  C 7.666015625000001 8.846261160714286  7.636718750000001 8.88392857142857  7.6171875 8.90625  L 7.597656249999999 8.931361607142858  L 7.578125000000001 8.931361607142858  C 7.571614583333334 8.909040178571427  7.555338541666668 8.881138392857142  7.529296875 8.84765625  C 7.490234375 8.786272321428573  7.434895833333334 8.722098214285715  7.36328125 8.655133928571429  L 6.328125 7.32421875  L 7.0703125 7.32421875  L 7.0703125 6.428571428571429  L 4.23828125 6.428571428571429  L 4.23828125 7.32421875  L 4.90234375 7.32421875  L 6.748046875 9.601004464285715  L 4.853515625 11.969866071428571  Z " fill-rule="nonzero" fill="rgba(239, 161, 60, 1)" stroke="none" transform="matrix(1 0 0 1 220 286 )" class="fill" />
    <path d="M 11.2890625 0.569196428571429  L 14.3359375 3.180803571428571  C 14.518229166666668 3.3370535714285703  14.674479166666668 3.5491071428571437  14.8046875 3.8169642857142856  C 14.934895833333334 4.084821428571429  15 4.330357142857142  15 4.553571428571429  L 15 14.196428571428571  C 15 14.419642857142858  14.908854166666666 14.609374999999998  14.7265625 14.765625  C 14.544270833333336 14.921875000000002  14.322916666666668 15  14.0625 15  L 0.9375 15  C 0.6770833333333335 15  0.45572916666666674 14.921875000000002  0.2734375 14.765625  C 0.09114583333333331 14.609374999999998  0 14.419642857142858  0 14.196428571428571  L 0 0.803571428571429  C 0 0.5803571428571425  0.09114583333333331 0.39062499999999944  0.2734375 0.234375  C 0.45572916666666674 0.07812500000000056  0.6770833333333335 0  0.9375 0  L 9.6875 0  C 9.947916666666668 0  10.234375 0.05580357142857206  10.546875 0.16741071428571452  C 10.859375 0.279017857142857  11.106770833333334 0.41294642857142794  11.2890625 0.569196428571429  Z " stroke-width="0" stroke-dasharray="0" stroke="rgba(255, 255, 255, 0)" fill="none" transform="matrix(1 0 0 1 220 286 )" class="stroke" mask="url(#Clip990)" />
    <path d="M 10.400390625 1.3225446428571437  C 10.322265625 1.2555803571428563  10.188802083333336 1.1941964285714268  10 1.1383928571428563  L 10 4.285714285714286  L 13.671875 4.285714285714286  C 13.606770833333336 4.123883928571427  13.53515625 4.009486607142857  13.45703125 3.942522321428571  L 10.400390625 1.3225446428571437  Z " stroke-width="0" stroke-dasharray="0" stroke="rgba(255, 255, 255, 0)" fill="none" transform="matrix(1 0 0 1 220 286 )" class="stroke" mask="url(#Clip990)" />
    <path d="M 1.25 14  L 13.75 14  L 13.75 5.357142857142857  L 9.6875 5.357142857142857  C 9.427083333333334 5.357142857142857  9.205729166666666 5.279017857142856  9.0234375 5.122767857142857  C 8.841145833333334 4.966517857142857  8.75 4.776785714285713  8.75 4.553571428571429  L 8.75 1.071428571428571  L 1.25 1.071428571428571  L 1.25 14  Z " stroke-width="0" stroke-dasharray="0" stroke="rgba(255, 255, 255, 0)" fill="none" transform="matrix(1 0 0 1 220 286 )" class="stroke" mask="url(#Clip990)" />
    <path d="M 4.853515625 11.969866071428571  L 4.189453125 11.969866071428571  L 4.189453125 12.857142857142858  L 6.93359375 12.857142857142858  L 6.93359375 11.969866071428571  L 6.201171875 11.969866071428571  L 7.20703125 10.622209821428571  C 7.239583333333333 10.58314732142857  7.272135416666668 10.537109374999998  7.3046875 10.484095982142858  C 7.337239583333334 10.431082589285714  7.361653645833334 10.393415178571427  7.3779296875 10.37109375  C 7.394205729166668 10.34877232142857  7.405598958333334 10.337611607142858  7.412109375 10.337611607142858  L 7.431640625 10.337611607142858  C 7.438151041666668 10.359933035714285  7.454427083333334 10.387834821428571  7.48046875 10.421316964285715  C 7.493489583333332 10.44363839285714  7.508138020833333 10.464564732142856  7.524414062499999 10.484095982142858  C 7.540690104166668 10.503627232142858  7.560221354166668 10.525948660714285  7.583007812499999 10.551060267857142  C 7.605794270833334 10.576171875  7.626953125000001 10.599888392857142  7.646484375 10.622209821428571  L 8.69140625 11.969866071428571  L 7.949218749999999 11.969866071428571  L 7.949218749999999 12.857142857142858  L 10.791015625 12.857142857142858  L 10.791015625 11.969866071428571  L 10.126953125 11.969866071428571  L 8.251953125 9.684709821428571  L 10.15625 7.32421875  L 10.810546875 7.32421875  L 10.810546875 6.428571428571429  L 8.0859375 6.428571428571429  L 8.0859375 7.32421875  L 8.80859375 7.32421875  L 7.802734374999999 8.655133928571429  C 7.776692708333336 8.694196428571429  7.744140625000001 8.740234375  7.705078125 8.793247767857142  C 7.666015625000001 8.846261160714286  7.636718750000001 8.88392857142857  7.6171875 8.90625  L 7.597656249999999 8.931361607142858  L 7.578125000000001 8.931361607142858  C 7.571614583333334 8.909040178571427  7.555338541666668 8.881138392857142  7.529296875 8.84765625  C 7.490234375 8.786272321428573  7.434895833333334 8.722098214285715  7.36328125 8.655133928571429  L 6.328125 7.32421875  L 7.0703125 7.32421875  L 7.0703125 6.428571428571429  L 4.23828125 6.428571428571429  L 4.23828125 7.32421875  L 4.90234375 7.32421875  L 6.748046875 9.601004464285715  L 4.853515625 11.969866071428571  Z " stroke-width="0" stroke-dasharray="0" stroke="rgba(255, 255, 255, 0)" fill="none" transform="matrix(1 0 0 1 220 286 )" class="stroke" mask="url(#Clip990)" />
  </g>
</svg>