<?xml version="1.0" encoding="utf-8"?>
<svg version="1.1" xmlns:xlink="http://www.w3.org/1999/xlink" width="19px" height="6px" xmlns="http://www.w3.org/2000/svg">
  <defs>
    <pattern id="BGPattern" patternUnits="userSpaceOnUse" alignment="0 0" imageRepeat="None" />
    <mask fill="white" id="Clip991">
      <path d="M 4.803977272727273 0.4374999999999998  C 5.055871212121211 0.7291666666666641  5.181818181818182 1.0833333333333321  5.181818181818182 1.5  L 5.181818181818182 4.5  C 5.181818181818182 4.916666666666666  5.055871212121211 5.270833333333332  4.803977272727273 5.5625  C 4.552083333333334 5.854166666666666  4.246212121212122 6  3.8863636363636367 6  L 1.2954545454545454 6  C 0.9356060606060607 6  0.6297348484848486 5.854166666666666  0.37784090909090906 5.5625  C 0.1259469696969697 5.270833333333332  0 4.916666666666666  0 4.5  L 0 1.5  C 0 1.0833333333333321  0.1259469696969697 0.7291666666666641  0.37784090909090906 0.4374999999999998  C 0.6297348484848486 0.14583333333333215  0.9356060606060607 0  1.2954545454545454 0  L 3.8863636363636367 0  C 4.246212121212122 0  4.552083333333334 0.14583333333333215  4.803977272727273 0.4374999999999998  Z M 11.713068181818182 0.4374999999999998  C 11.964962121212121 0.7291666666666641  12.09090909090909 1.0833333333333321  12.09090909090909 1.5  L 12.09090909090909 4.5  C 12.09090909090909 4.916666666666666  11.964962121212121 5.270833333333332  11.713068181818182 5.5625  C 11.461174242424246 5.854166666666666  11.155303030303031 6  10.795454545454547 6  L 8.204545454545455 6  C 7.84469696969697 6  7.538825757575759 5.854166666666666  7.286931818181818 5.5625  C 7.03503787878788 5.270833333333332  6.909090909090909 4.916666666666666  6.909090909090909 4.5  L 6.909090909090909 1.5  C 6.909090909090909 1.0833333333333321  7.03503787878788 0.7291666666666641  7.286931818181818 0.4374999999999998  C 7.538825757575759 0.14583333333333215  7.84469696969697 0  8.204545454545455 0  L 10.795454545454547 0  C 11.155303030303031 0  11.461174242424246 0.14583333333333215  11.713068181818182 0.4374999999999998  Z M 18.62215909090909 0.4374999999999998  C 18.87405303030303 0.7291666666666641  19 1.0833333333333321  19 1.5  L 19 4.5  C 19 4.916666666666666  18.87405303030303 5.270833333333332  18.62215909090909 5.5625  C 18.370265151515152 5.854166666666666  18.06439393939394 6  17.704545454545453 6  L 15.113636363636363 6  C 14.75378787878788 6  14.447916666666668 5.854166666666666  14.196022727272728 5.5625  C 13.944128787878789 5.270833333333332  13.818181818181818 4.916666666666666  13.818181818181818 4.5  L 13.818181818181818 1.5  C 13.818181818181818 1.0833333333333321  13.944128787878789 0.7291666666666641  14.196022727272728 0.4374999999999998  C 14.447916666666668 0.14583333333333215  14.75378787878788 0  15.113636363636363 0  L 17.704545454545453 0  C 18.06439393939394 0  18.370265151515152 0.14583333333333215  18.62215909090909 0.4374999999999998  Z " fill-rule="evenodd" />
    </mask>
  </defs>
  <g transform="matrix(1 0 0 1 -46 -538 )">
    <path d="M 4.803977272727273 0.4374999999999998  C 5.055871212121211 0.7291666666666641  5.181818181818182 1.0833333333333321  5.181818181818182 1.5  L 5.181818181818182 4.5  C 5.181818181818182 4.916666666666666  5.055871212121211 5.270833333333332  4.803977272727273 5.5625  C 4.552083333333334 5.854166666666666  4.246212121212122 6  3.8863636363636367 6  L 1.2954545454545454 6  C 0.9356060606060607 6  0.6297348484848486 5.854166666666666  0.37784090909090906 5.5625  C 0.1259469696969697 5.270833333333332  0 4.916666666666666  0 4.5  L 0 1.5  C 0 1.0833333333333321  0.1259469696969697 0.7291666666666641  0.37784090909090906 0.4374999999999998  C 0.6297348484848486 0.14583333333333215  0.9356060606060607 0  1.2954545454545454 0  L 3.8863636363636367 0  C 4.246212121212122 0  4.552083333333334 0.14583333333333215  4.803977272727273 0.4374999999999998  Z M 11.713068181818182 0.4374999999999998  C 11.964962121212121 0.7291666666666641  12.09090909090909 1.0833333333333321  12.09090909090909 1.5  L 12.09090909090909 4.5  C 12.09090909090909 4.916666666666666  11.964962121212121 5.270833333333332  11.713068181818182 5.5625  C 11.461174242424246 5.854166666666666  11.155303030303031 6  10.795454545454547 6  L 8.204545454545455 6  C 7.84469696969697 6  7.538825757575759 5.854166666666666  7.286931818181818 5.5625  C 7.03503787878788 5.270833333333332  6.909090909090909 4.916666666666666  6.909090909090909 4.5  L 6.909090909090909 1.5  C 6.909090909090909 1.0833333333333321  7.03503787878788 0.7291666666666641  7.286931818181818 0.4374999999999998  C 7.538825757575759 0.14583333333333215  7.84469696969697 0  8.204545454545455 0  L 10.795454545454547 0  C 11.155303030303031 0  11.461174242424246 0.14583333333333215  11.713068181818182 0.4374999999999998  Z M 18.62215909090909 0.4374999999999998  C 18.87405303030303 0.7291666666666641  19 1.0833333333333321  19 1.5  L 19 4.5  C 19 4.916666666666666  18.87405303030303 5.270833333333332  18.62215909090909 5.5625  C 18.370265151515152 5.854166666666666  18.06439393939394 6  17.704545454545453 6  L 15.113636363636363 6  C 14.75378787878788 6  14.447916666666668 5.854166666666666  14.196022727272728 5.5625  C 13.944128787878789 5.270833333333332  13.818181818181818 4.916666666666666  13.818181818181818 4.5  L 13.818181818181818 1.5  C 13.818181818181818 1.0833333333333321  13.944128787878789 0.7291666666666641  14.196022727272728 0.4374999999999998  C 14.447916666666668 0.14583333333333215  14.75378787878788 0  15.113636363636363 0  L 17.704545454545453 0  C 18.06439393939394 0  18.370265151515152 0.14583333333333215  18.62215909090909 0.4374999999999998  Z " fill-rule="nonzero" fill="rgba(254, 184, 80, 1)" stroke="none" transform="matrix(1 0 0 1 46 538 )" class="fill" />
    <path d="M 4.803977272727273 0.4374999999999998  C 5.055871212121211 0.7291666666666641  5.181818181818182 1.0833333333333321  5.181818181818182 1.5  L 5.181818181818182 4.5  C 5.181818181818182 4.916666666666666  5.055871212121211 5.270833333333332  4.803977272727273 5.5625  C 4.552083333333334 5.854166666666666  4.246212121212122 6  3.8863636363636367 6  L 1.2954545454545454 6  C 0.9356060606060607 6  0.6297348484848486 5.854166666666666  0.37784090909090906 5.5625  C 0.1259469696969697 5.270833333333332  0 4.916666666666666  0 4.5  L 0 1.5  C 0 1.0833333333333321  0.1259469696969697 0.7291666666666641  0.37784090909090906 0.4374999999999998  C 0.6297348484848486 0.14583333333333215  0.9356060606060607 0  1.2954545454545454 0  L 3.8863636363636367 0  C 4.246212121212122 0  4.552083333333334 0.14583333333333215  4.803977272727273 0.4374999999999998  Z " stroke-width="0" stroke-dasharray="0" stroke="rgba(255, 255, 255, 0)" fill="none" transform="matrix(1 0 0 1 46 538 )" class="stroke" mask="url(#Clip991)" />
    <path d="M 11.713068181818182 0.4374999999999998  C 11.964962121212121 0.7291666666666641  12.09090909090909 1.0833333333333321  12.09090909090909 1.5  L 12.09090909090909 4.5  C 12.09090909090909 4.916666666666666  11.964962121212121 5.270833333333332  11.713068181818182 5.5625  C 11.461174242424246 5.854166666666666  11.155303030303031 6  10.795454545454547 6  L 8.204545454545455 6  C 7.84469696969697 6  7.538825757575759 5.854166666666666  7.286931818181818 5.5625  C 7.03503787878788 5.270833333333332  6.909090909090909 4.916666666666666  6.909090909090909 4.5  L 6.909090909090909 1.5  C 6.909090909090909 1.0833333333333321  7.03503787878788 0.7291666666666641  7.286931818181818 0.4374999999999998  C 7.538825757575759 0.14583333333333215  7.84469696969697 0  8.204545454545455 0  L 10.795454545454547 0  C 11.155303030303031 0  11.461174242424246 0.14583333333333215  11.713068181818182 0.4374999999999998  Z " stroke-width="0" stroke-dasharray="0" stroke="rgba(255, 255, 255, 0)" fill="none" transform="matrix(1 0 0 1 46 538 )" class="stroke" mask="url(#Clip991)" />
    <path d="M 18.62215909090909 0.4374999999999998  C 18.87405303030303 0.7291666666666641  19 1.0833333333333321  19 1.5  L 19 4.5  C 19 4.916666666666666  18.87405303030303 5.270833333333332  18.62215909090909 5.5625  C 18.370265151515152 5.854166666666666  18.06439393939394 6  17.704545454545453 6  L 15.113636363636363 6  C 14.75378787878788 6  14.447916666666668 5.854166666666666  14.196022727272728 5.5625  C 13.944128787878789 5.270833333333332  13.818181818181818 4.916666666666666  13.818181818181818 4.5  L 13.818181818181818 1.5  C 13.818181818181818 1.0833333333333321  13.944128787878789 0.7291666666666641  14.196022727272728 0.4374999999999998  C 14.447916666666668 0.14583333333333215  14.75378787878788 0  15.113636363636363 0  L 17.704545454545453 0  C 18.06439393939394 0  18.370265151515152 0.14583333333333215  18.62215909090909 0.4374999999999998  Z " stroke-width="0" stroke-dasharray="0" stroke="rgba(255, 255, 255, 0)" fill="none" transform="matrix(1 0 0 1 46 538 )" class="stroke" mask="url(#Clip991)" />
  </g>
</svg>