<?xml version="1.0" encoding="utf-8"?>
<svg version="1.1" xmlns:xlink="http://www.w3.org/1999/xlink" width="18px" height="15px" xmlns="http://www.w3.org/2000/svg">
  <defs>
    <pattern id="BGPattern" patternUnits="userSpaceOnUse" alignment="0 0" imageRepeat="None" />
    <mask fill="white" id="Clip992">
      <path d="M 0 7.5  L 4.5 0  L 13.5 0  L 18 7.5  L 13.5 15  L 4.5 15  L 0 7.5  Z " fill-rule="evenodd" />
    </mask>
  </defs>
  <g transform="matrix(1 0 0 1 -44 -651 )">
    <path d="M 0 7.5  L 4.5 0  L 13.5 0  L 18 7.5  L 13.5 15  L 4.5 15  L 0 7.5  Z " fill-rule="nonzero" fill="rgba(255, 255, 255, 1)" stroke="none" transform="matrix(1 0 0 1 44 651 )" class="fill" />
    <path d="M 0 7.5  L 4.5 0  L 13.5 0  L 18 7.5  L 13.5 15  L 4.5 15  L 0 7.5  Z " stroke-width="2" stroke-dasharray="0" stroke="rgba(254, 184, 80, 1)" fill="none" transform="matrix(1 0 0 1 44 651 )" class="stroke" mask="url(#Clip992)" />
  </g>
</svg>