<?xml version="1.0" encoding="utf-8"?>
<svg version="1.1" xmlns:xlink="http://www.w3.org/1999/xlink" width="39px" height="39px" xmlns="http://www.w3.org/2000/svg">
  <defs>
    <pattern id="BGPattern" patternUnits="userSpaceOnUse" alignment="0 0" imageRepeat="None" />
    <mask fill="white" id="Clip965">
      <path d="M 0 19.5  C 0 8.579999999999998  8.579999999999998 0  19.5 0  C 30.42 0  39 8.579999999999998  39 19.5  C 39 30.42  30.42 39  19.5 39  C 8.579999999999998 39  0 30.42  0 19.5  Z " fill-rule="evenodd" />
    </mask>
  </defs>
  <g transform="matrix(1 0 0 1 -43 -1761 )">
    <path d="M 0 19.5  C 0 8.579999999999998  8.579999999999998 0  19.5 0  C 30.42 0  39 8.579999999999998  39 19.5  C 39 30.42  30.42 39  19.5 39  C 8.579999999999998 39  0 30.42  0 19.5  Z " fill-rule="nonzero" fill="rgba(255, 255, 255, 1)" stroke="none" transform="matrix(1 0 0 1 43 1761 )" class="fill" />
    <path d="M 0 19.5  C 0 8.579999999999998  8.579999999999998 0  19.5 0  C 30.42 0  39 8.579999999999998  39 19.5  C 39 30.42  30.42 39  19.5 39  C 8.579999999999998 39  0 30.42  0 19.5  Z " stroke-width="0" stroke-dasharray="0" stroke="rgba(194, 194, 194, 0.20392156862745098)" fill="none" transform="matrix(1 0 0 1 43 1761 )" class="stroke" mask="url(#Clip965)" />
  </g>
</svg>