<?xml version="1.0" encoding="utf-8"?>
<svg version="1.1" xmlns:xlink="http://www.w3.org/1999/xlink" width="19px" height="14px" xmlns="http://www.w3.org/2000/svg">
  <defs>
    <pattern id="BGPattern" patternUnits="userSpaceOnUse" alignment="0 0" imageRepeat="None" />
    <mask fill="white" id="Clip956">
      <path d="M 5.328035654677018 9.687739990651826  C 5.329785983066798 9.686859901666699  5.329785983066798 9.685979812681564  5.329785983066798 9.685979812681564  C 5.581833271195776 9.685979812681564  5.834755723519644 9.68862007963696  6.08680301164863 9.685099723696432  C 6.354603255285658 9.680699278770774  6.555015855916004 9.798631202778418  6.662661051887757 10.038015406734234  C 6.76418009849526 10.264198275913074  6.714295739386408 10.483340433210861  6.548889706551764 10.670799387043907  C 6.226829282831405 11.035156226888418  5.903893694916145 11.3986329777478  5.581833271195786 11.762989817592313  C 5.065486396209341 12.346488814734611  4.54913952122288 12.92998781187691  4.031917482041541 13.512606720034078  C 3.943525898357418 13.612056775353956  3.8551343146733004 13.7132670086441  3.7553655964555723 13.801275907157267  C 3.5313235625631463 13.999295928811893  3.281026602823949 14.00281628475242  3.0508584195672777 13.811836974978846  C 2.8758255805888178 13.66662229243212  2.7428006229651936 13.48092351656934  2.5905220530539346 13.31370660939432  C 2.1564406123873563 12.83581829046782  1.7284853210850242 12.35088925966027  1.297904537198017 11.869480584793244  C 0.9382120530972863 11.467279918588073  0.5785195689965509 11.065079252382898  0.22057741328560554 10.661118408207457  C 0.053421052061175714 10.472779365389284  0.02103997685016476 10.25715756403202  0.11468254570364246 10.02657424992752  C 0.21182577133668526 9.787190045971705  0.4069873867976659 9.68950016862209  0.6537836897572931 9.687739990651828  C 1.1123697278808562 9.685099723696432  1.5709557660044196 9.686859901666699  2.028666639933083 9.686859901666699  C 2.0820516558215143 9.686859901666699  2.134561507515051 9.687739990651828  2.1879465234034825 9.686859901666699  C 2.3638545265768323 9.681579367755907  2.378732317890003 9.670138210949194  2.383108138864463 9.489719968997203  C 2.3918597808133883 9.061996722223208  2.432992497973325 8.636913742404612  2.5038807977596016 8.214471029541407  C 2.727047667457138 6.88465657300745  3.2083879746478967 5.6542921717933705  3.9522775403063433 4.533938893720751  C 5.061985739429771 2.8635299999408343  6.526135437484573 1.6138036410538588  8.376232545486877 0.835804978197459  C 9.301281099488033 0.44680564676925966  10.26308654967466 0.20390108687291805  11.260773731851879 0.09565014170172204  C 12.764305818676835 -0.06628623156250554  14.231081009316316 0.10093067561251222  15.660224139575426 0.5840995284498007  C 16.74717806963166 0.9510966352497088  17.73348811727528 1.5099531408083215  18.629656252844974 2.2298659306460293  C 18.879078048389278 2.4305262192560506  19.034857275080103 2.667270156256471  18.990223901140606 3.0052243265470335  C 18.972720617242754 3.1345974073613894  18.932463064277712 3.254289509339297  18.85894927190676 3.3581400095848357  C 18.643658879963255 3.6591304424998676  18.356605024038586 3.852750019228835  17.989036062183814 3.9055553583367355  C 17.778996655409667 3.9354783838312137  17.599587995456744 3.8439491293775188  17.44030811198635 3.713695959578031  C 17.09461825500389 3.4303073063656315  16.72879962153892 3.17684167864771  16.341101883201638 2.954179165409396  C 15.38804807496393 2.405883727672364  14.36760662371952 2.0688096463669323  13.274526544299047 1.956158256270079  C 12.027417566577522 1.8276652644408546  10.808313843092566 1.9491175443890258  9.621591194818611 2.3627593674009115  C 8.616902699082264 2.7130347834833177  7.718109070927878 3.245488619487979  6.924335146160565 3.9548403415041085  C 5.697354944921568 5.052311305963304  4.886077736256416 6.405888165095817  4.494004176944674 8.009410296005726  C 4.3784825032188905 8.483778258991698  4.317221009576434 8.967827200814117  4.3084693676275085 9.457156676547326  C 4.304968710847938 9.671018299934325  4.321596830550889 9.68597981268156  4.53076107313015 9.687739990651826  C 4.796810988377413 9.68950016862209  5.061985739429771 9.687739990651826  5.328035654677018 9.687739990651826  Z " fill-rule="evenodd" />
    </mask>
  </defs>
  <g transform="matrix(1 0 0 1 -197 -832 )">
    <path d="M 5.328035654677018 9.687739990651826  C 5.329785983066798 9.686859901666699  5.329785983066798 9.685979812681564  5.329785983066798 9.685979812681564  C 5.581833271195776 9.685979812681564  5.834755723519644 9.68862007963696  6.08680301164863 9.685099723696432  C 6.354603255285658 9.680699278770774  6.555015855916004 9.798631202778418  6.662661051887757 10.038015406734234  C 6.76418009849526 10.264198275913074  6.714295739386408 10.483340433210861  6.548889706551764 10.670799387043907  C 6.226829282831405 11.035156226888418  5.903893694916145 11.3986329777478  5.581833271195786 11.762989817592313  C 5.065486396209341 12.346488814734611  4.54913952122288 12.92998781187691  4.031917482041541 13.512606720034078  C 3.943525898357418 13.612056775353956  3.8551343146733004 13.7132670086441  3.7553655964555723 13.801275907157267  C 3.5313235625631463 13.999295928811893  3.281026602823949 14.00281628475242  3.0508584195672777 13.811836974978846  C 2.8758255805888178 13.66662229243212  2.7428006229651936 13.48092351656934  2.5905220530539346 13.31370660939432  C 2.1564406123873563 12.83581829046782  1.7284853210850242 12.35088925966027  1.297904537198017 11.869480584793244  C 0.9382120530972863 11.467279918588073  0.5785195689965509 11.065079252382898  0.22057741328560554 10.661118408207457  C 0.053421052061175714 10.472779365389284  0.02103997685016476 10.25715756403202  0.11468254570364246 10.02657424992752  C 0.21182577133668526 9.787190045971705  0.4069873867976659 9.68950016862209  0.6537836897572931 9.687739990651828  C 1.1123697278808562 9.685099723696432  1.5709557660044196 9.686859901666699  2.028666639933083 9.686859901666699  C 2.0820516558215143 9.686859901666699  2.134561507515051 9.687739990651828  2.1879465234034825 9.686859901666699  C 2.3638545265768323 9.681579367755907  2.378732317890003 9.670138210949194  2.383108138864463 9.489719968997203  C 2.3918597808133883 9.061996722223208  2.432992497973325 8.636913742404612  2.5038807977596016 8.214471029541407  C 2.727047667457138 6.88465657300745  3.2083879746478967 5.6542921717933705  3.9522775403063433 4.533938893720751  C 5.061985739429771 2.8635299999408343  6.526135437484573 1.6138036410538588  8.376232545486877 0.835804978197459  C 9.301281099488033 0.44680564676925966  10.26308654967466 0.20390108687291805  11.260773731851879 0.09565014170172204  C 12.764305818676835 -0.06628623156250554  14.231081009316316 0.10093067561251222  15.660224139575426 0.5840995284498007  C 16.74717806963166 0.9510966352497088  17.73348811727528 1.5099531408083215  18.629656252844974 2.2298659306460293  C 18.879078048389278 2.4305262192560506  19.034857275080103 2.667270156256471  18.990223901140606 3.0052243265470335  C 18.972720617242754 3.1345974073613894  18.932463064277712 3.254289509339297  18.85894927190676 3.3581400095848357  C 18.643658879963255 3.6591304424998676  18.356605024038586 3.852750019228835  17.989036062183814 3.9055553583367355  C 17.778996655409667 3.9354783838312137  17.599587995456744 3.8439491293775188  17.44030811198635 3.713695959578031  C 17.09461825500389 3.4303073063656315  16.72879962153892 3.17684167864771  16.341101883201638 2.954179165409396  C 15.38804807496393 2.405883727672364  14.36760662371952 2.0688096463669323  13.274526544299047 1.956158256270079  C 12.027417566577522 1.8276652644408546  10.808313843092566 1.9491175443890258  9.621591194818611 2.3627593674009115  C 8.616902699082264 2.7130347834833177  7.718109070927878 3.245488619487979  6.924335146160565 3.9548403415041085  C 5.697354944921568 5.052311305963304  4.886077736256416 6.405888165095817  4.494004176944674 8.009410296005726  C 4.3784825032188905 8.483778258991698  4.317221009576434 8.967827200814117  4.3084693676275085 9.457156676547326  C 4.304968710847938 9.671018299934325  4.321596830550889 9.68597981268156  4.53076107313015 9.687739990651826  C 4.796810988377413 9.68950016862209  5.061985739429771 9.687739990651826  5.328035654677018 9.687739990651826  Z " fill-rule="nonzero" fill="rgba(245, 154, 35, 1)" stroke="none" transform="matrix(1 0 0 1 197 832 )" class="fill" />
    <path d="M 5.328035654677018 9.687739990651826  C 5.329785983066798 9.686859901666699  5.329785983066798 9.685979812681564  5.329785983066798 9.685979812681564  C 5.581833271195776 9.685979812681564  5.834755723519644 9.68862007963696  6.08680301164863 9.685099723696432  C 6.354603255285658 9.680699278770774  6.555015855916004 9.798631202778418  6.662661051887757 10.038015406734234  C 6.76418009849526 10.264198275913074  6.714295739386408 10.483340433210861  6.548889706551764 10.670799387043907  C 6.226829282831405 11.035156226888418  5.903893694916145 11.3986329777478  5.581833271195786 11.762989817592313  C 5.065486396209341 12.346488814734611  4.54913952122288 12.92998781187691  4.031917482041541 13.512606720034078  C 3.943525898357418 13.612056775353956  3.8551343146733004 13.7132670086441  3.7553655964555723 13.801275907157267  C 3.5313235625631463 13.999295928811893  3.281026602823949 14.00281628475242  3.0508584195672777 13.811836974978846  C 2.8758255805888178 13.66662229243212  2.7428006229651936 13.48092351656934  2.5905220530539346 13.31370660939432  C 2.1564406123873563 12.83581829046782  1.7284853210850242 12.35088925966027  1.297904537198017 11.869480584793244  C 0.9382120530972863 11.467279918588073  0.5785195689965509 11.065079252382898  0.22057741328560554 10.661118408207457  C 0.053421052061175714 10.472779365389284  0.02103997685016476 10.25715756403202  0.11468254570364246 10.02657424992752  C 0.21182577133668526 9.787190045971705  0.4069873867976659 9.68950016862209  0.6537836897572931 9.687739990651828  C 1.1123697278808562 9.685099723696432  1.5709557660044196 9.686859901666699  2.028666639933083 9.686859901666699  C 2.0820516558215143 9.686859901666699  2.134561507515051 9.687739990651828  2.1879465234034825 9.686859901666699  C 2.3638545265768323 9.681579367755907  2.378732317890003 9.670138210949194  2.383108138864463 9.489719968997203  C 2.3918597808133883 9.061996722223208  2.432992497973325 8.636913742404612  2.5038807977596016 8.214471029541407  C 2.727047667457138 6.88465657300745  3.2083879746478967 5.6542921717933705  3.9522775403063433 4.533938893720751  C 5.061985739429771 2.8635299999408343  6.526135437484573 1.6138036410538588  8.376232545486877 0.835804978197459  C 9.301281099488033 0.44680564676925966  10.26308654967466 0.20390108687291805  11.260773731851879 0.09565014170172204  C 12.764305818676835 -0.06628623156250554  14.231081009316316 0.10093067561251222  15.660224139575426 0.5840995284498007  C 16.74717806963166 0.9510966352497088  17.73348811727528 1.5099531408083215  18.629656252844974 2.2298659306460293  C 18.879078048389278 2.4305262192560506  19.034857275080103 2.667270156256471  18.990223901140606 3.0052243265470335  C 18.972720617242754 3.1345974073613894  18.932463064277712 3.254289509339297  18.85894927190676 3.3581400095848357  C 18.643658879963255 3.6591304424998676  18.356605024038586 3.852750019228835  17.989036062183814 3.9055553583367355  C 17.778996655409667 3.9354783838312137  17.599587995456744 3.8439491293775188  17.44030811198635 3.713695959578031  C 17.09461825500389 3.4303073063656315  16.72879962153892 3.17684167864771  16.341101883201638 2.954179165409396  C 15.38804807496393 2.405883727672364  14.36760662371952 2.0688096463669323  13.274526544299047 1.956158256270079  C 12.027417566577522 1.8276652644408546  10.808313843092566 1.9491175443890258  9.621591194818611 2.3627593674009115  C 8.616902699082264 2.7130347834833177  7.718109070927878 3.245488619487979  6.924335146160565 3.9548403415041085  C 5.697354944921568 5.052311305963304  4.886077736256416 6.405888165095817  4.494004176944674 8.009410296005726  C 4.3784825032188905 8.483778258991698  4.317221009576434 8.967827200814117  4.3084693676275085 9.457156676547326  C 4.304968710847938 9.671018299934325  4.321596830550889 9.68597981268156  4.53076107313015 9.687739990651826  C 4.796810988377413 9.68950016862209  5.061985739429771 9.687739990651826  5.328035654677018 9.687739990651826  Z " stroke-width="0" stroke-dasharray="0" stroke="rgba(245, 154, 35, 1)" fill="none" transform="matrix(1 0 0 1 197 832 )" class="stroke" mask="url(#Clip956)" />
  </g>
</svg>