<?xml version="1.0" encoding="utf-8"?>
<svg version="1.1" xmlns:xlink="http://www.w3.org/1999/xlink" width="12px" height="10px" xmlns="http://www.w3.org/2000/svg">
  <defs>
    <pattern id="BGPattern" patternUnits="userSpaceOnUse" alignment="0 0" imageRepeat="None" />
    <mask fill="white" id="Clip957">
      <path d="M 5.947476249784689 9.93762739103167  C 4.382297311621373 9.93762739103167  2.8179630463874465 9.929297977422388  1.252784108224131 9.942625039197242  C 0.7704758655413122 9.946789746001883  0.23326388244801283 9.596121433051115  0.07362069879293902 9.095523675133272  C 0.026319014746995502 8.94809305424898  0.01364892080610062 8.798996550642835  0.01364892080610062 8.646568281592979  C 0.01449359373549041 6.914050250862341  0.01449359373549041 5.180699278770776  0.01449359373549041 3.448181248040141  C 0.01449359373549041 2.7526752116651023  0.03138705232333425 2.056336233929133  0.008580883229742667 1.3616631389150236  C -0.009157248287490956 0.810255957980561  0.43345136671390216 0.09475932894324521  1.2688328938825564 0.06394049858890227  C 1.5695364567460997 0.05311226089683648  1.8719293654684226 0.05727696770147617  2.172632928331966 0.06060873314518863  C 2.333120784916439 0.06227461586704426  2.356771626939411 0.08976168077767473  2.3626843374451587 0.2538511288805279  C 2.367752375021507 0.4054464565694585  2.3593056457276 0.5578747256193186  2.3702863938096956 0.7086371119473196  C 2.417588077855639 1.3841525556600822  3.1744150225908414 1.7806326434619018  3.763152054377052 1.4349619786767023  C 4.072302346534503 1.2533807619943562  4.22180945503688 0.9660159924741313  4.244615624130471 0.6161806208842909  C 4.252217680495009 0.4962370649106317  4.245460297059862 0.3762935089369724  4.247149642918651 0.25551701160238477  C 4.25052833463621 0.07976638444653616  4.264887774435884 0.06643932267168513  4.449026473043329 0.059775791784260214  C 4.481124044360218 0.058942850423331805  4.513221615677117 0.058942850423331805  4.545319186994006 0.058942850423331805  C 5.494731559630579 0.058942850423331805  6.443299259337763 0.05810990906240339  7.392711631974336 0.05810990906240339  C 7.41213910935035 0.05810990906240339  7.4315665867263725 0.05810990906240339  7.450149391172987 0.05810990906240339  C 7.674832390391247 0.06227461586704308  7.688347157261522 0.07393579492003848  7.6891918301909215 0.2971640796487935  C 7.6891918301909215 0.44875940733772407  7.702706597061187 0.5995217936657273  7.714532018072672 0.751117121354658  C 7.7440955706013925 1.137601912825339  8.11997502418081 1.5740631859517105  8.674080465861953 1.564067889620573  C 9.145407960462666 1.5549055346503629  9.541559564347496 1.1475972091564774  9.560987041723518 0.6769853402320496  C 9.566899752229267 0.5253900125431189  9.560142368794128 0.3737946848541872  9.564365733441079 0.22136641580432936  C 9.568589098088037 0.09475932894324401  9.589705921322839 0.06394049858890109  9.705426112649539 0.06477343994982951  C 10.082994912087743 0.06727226403261473  10.463097730314129 0.02562519598620483  10.838132510964167 0.08726285669489069  C 11.437850290832465 0.18554993728441715  11.893973672704123 0.7044724051426788  11.912556477150746 1.3025243022891206  C 11.920158533515274 1.5365808247099424  11.915935168868316 1.7706373471307646  11.915935168868316 2.0046938695515855  C 11.915935168868316 4.199494355597366  11.915090495938925 6.3934619002822215  11.916779841797705 8.588262386328005  C 11.916779841797705 8.873961273126376  11.866944138963573 9.14300133270618  11.696320207226403 9.379556679209788  C 11.438694963761854 9.736055581687053  11.097447100287495 9.93929327375353  10.641323718415826 9.938460332392603  C 9.07698945318194 9.935961508309816  7.511810515018624 9.93762739103167  5.947476249784689 9.93762739103167  Z M 1.6844119751434379 8.89311892442772  C 3.1076858611688944 8.89395186578865  4.53095974719436 8.89395186578865  5.954233633219825 8.89395186578865  C 5.954233633219825 8.894784807149575  5.954233633219825 8.895617748510507  5.954233633219825 8.896450689871433  C 7.416362473997319 8.896450689871433  8.87764664184543 8.896450689871433  10.339775482622922 8.896450689871433  C 10.409883335762459 8.896450689871433  10.480835861831373 8.899782455315146  10.550943714970918 8.892285983066792  C 10.724946338425656 8.875627155848228  10.844889894399323 8.756516541235497  10.863472698845946 8.586596503606145  C 10.868540736422295 8.536620021950455  10.866851390563516 8.485810598933835  10.866851390563516 8.435001175917217  C 10.866851390563516 6.728304327375353  10.866851390563516 5.020774537472562  10.866851390563516 3.3140776889306993  C 10.866851390563516 2.88677877077454  10.782384097624316 2.802651693320791  10.35160090363441 2.802651693320791  C 7.415517801067928 2.802651693320791  4.478590025572059 2.802651693320791  1.5425069230055786 2.8034846346817197  C 1.4909818743126668 2.8034846346817197  1.439456825619755 2.801818751959864  1.3887764498562332 2.805983458764505  C 1.2012590595312194 2.8201434619002845  1.084694195275121 2.934256428347447  1.069490082546076 3.1208352931953605  C 1.0652667178991175 3.1708117748510505  1.066956063757897 3.221621197867672  1.066956063757897 3.2724306208842906  C 1.066956063757897 4.422722640326124  1.066956063757897 5.5738476011288824  1.066956063757897 6.724139620570712  C 1.066956063757897 7.318026810912514  1.0652667178991175 7.912746942615243  1.066956063757897 8.506634132957041  C 1.0678007366872868 8.772342427093134  1.1860549468021648 8.886455393540299  1.45381626541942 8.892285983066795  C 1.5306815019940925 8.893951865788651  1.607546738568765 8.89311892442772  1.6844119751434379 8.89311892442772  Z " fill-rule="evenodd" />
    </mask>
  </defs>
  <g transform="matrix(1 0 0 1 -208 -838 )">
    <path d="M 5.947476249784689 9.93762739103167  C 4.382297311621373 9.93762739103167  2.8179630463874465 9.929297977422388  1.252784108224131 9.942625039197242  C 0.7704758655413122 9.946789746001883  0.23326388244801283 9.596121433051115  0.07362069879293902 9.095523675133272  C 0.026319014746995502 8.94809305424898  0.01364892080610062 8.798996550642835  0.01364892080610062 8.646568281592979  C 0.01449359373549041 6.914050250862341  0.01449359373549041 5.180699278770776  0.01449359373549041 3.448181248040141  C 0.01449359373549041 2.7526752116651023  0.03138705232333425 2.056336233929133  0.008580883229742667 1.3616631389150236  C -0.009157248287490956 0.810255957980561  0.43345136671390216 0.09475932894324521  1.2688328938825564 0.06394049858890227  C 1.5695364567460997 0.05311226089683648  1.8719293654684226 0.05727696770147617  2.172632928331966 0.06060873314518863  C 2.333120784916439 0.06227461586704426  2.356771626939411 0.08976168077767473  2.3626843374451587 0.2538511288805279  C 2.367752375021507 0.4054464565694585  2.3593056457276 0.5578747256193186  2.3702863938096956 0.7086371119473196  C 2.417588077855639 1.3841525556600822  3.1744150225908414 1.7806326434619018  3.763152054377052 1.4349619786767023  C 4.072302346534503 1.2533807619943562  4.22180945503688 0.9660159924741313  4.244615624130471 0.6161806208842909  C 4.252217680495009 0.4962370649106317  4.245460297059862 0.3762935089369724  4.247149642918651 0.25551701160238477  C 4.25052833463621 0.07976638444653616  4.264887774435884 0.06643932267168513  4.449026473043329 0.059775791784260214  C 4.481124044360218 0.058942850423331805  4.513221615677117 0.058942850423331805  4.545319186994006 0.058942850423331805  C 5.494731559630579 0.058942850423331805  6.443299259337763 0.05810990906240339  7.392711631974336 0.05810990906240339  C 7.41213910935035 0.05810990906240339  7.4315665867263725 0.05810990906240339  7.450149391172987 0.05810990906240339  C 7.674832390391247 0.06227461586704308  7.688347157261522 0.07393579492003848  7.6891918301909215 0.2971640796487935  C 7.6891918301909215 0.44875940733772407  7.702706597061187 0.5995217936657273  7.714532018072672 0.751117121354658  C 7.7440955706013925 1.137601912825339  8.11997502418081 1.5740631859517105  8.674080465861953 1.564067889620573  C 9.145407960462666 1.5549055346503629  9.541559564347496 1.1475972091564774  9.560987041723518 0.6769853402320496  C 9.566899752229267 0.5253900125431189  9.560142368794128 0.3737946848541872  9.564365733441079 0.22136641580432936  C 9.568589098088037 0.09475932894324401  9.589705921322839 0.06394049858890109  9.705426112649539 0.06477343994982951  C 10.082994912087743 0.06727226403261473  10.463097730314129 0.02562519598620483  10.838132510964167 0.08726285669489069  C 11.437850290832465 0.18554993728441715  11.893973672704123 0.7044724051426788  11.912556477150746 1.3025243022891206  C 11.920158533515274 1.5365808247099424  11.915935168868316 1.7706373471307646  11.915935168868316 2.0046938695515855  C 11.915935168868316 4.199494355597366  11.915090495938925 6.3934619002822215  11.916779841797705 8.588262386328005  C 11.916779841797705 8.873961273126376  11.866944138963573 9.14300133270618  11.696320207226403 9.379556679209788  C 11.438694963761854 9.736055581687053  11.097447100287495 9.93929327375353  10.641323718415826 9.938460332392603  C 9.07698945318194 9.935961508309816  7.511810515018624 9.93762739103167  5.947476249784689 9.93762739103167  Z M 1.6844119751434379 8.89311892442772  C 3.1076858611688944 8.89395186578865  4.53095974719436 8.89395186578865  5.954233633219825 8.89395186578865  C 5.954233633219825 8.894784807149575  5.954233633219825 8.895617748510507  5.954233633219825 8.896450689871433  C 7.416362473997319 8.896450689871433  8.87764664184543 8.896450689871433  10.339775482622922 8.896450689871433  C 10.409883335762459 8.896450689871433  10.480835861831373 8.899782455315146  10.550943714970918 8.892285983066792  C 10.724946338425656 8.875627155848228  10.844889894399323 8.756516541235497  10.863472698845946 8.586596503606145  C 10.868540736422295 8.536620021950455  10.866851390563516 8.485810598933835  10.866851390563516 8.435001175917217  C 10.866851390563516 6.728304327375353  10.866851390563516 5.020774537472562  10.866851390563516 3.3140776889306993  C 10.866851390563516 2.88677877077454  10.782384097624316 2.802651693320791  10.35160090363441 2.802651693320791  C 7.415517801067928 2.802651693320791  4.478590025572059 2.802651693320791  1.5425069230055786 2.8034846346817197  C 1.4909818743126668 2.8034846346817197  1.439456825619755 2.801818751959864  1.3887764498562332 2.805983458764505  C 1.2012590595312194 2.8201434619002845  1.084694195275121 2.934256428347447  1.069490082546076 3.1208352931953605  C 1.0652667178991175 3.1708117748510505  1.066956063757897 3.221621197867672  1.066956063757897 3.2724306208842906  C 1.066956063757897 4.422722640326124  1.066956063757897 5.5738476011288824  1.066956063757897 6.724139620570712  C 1.066956063757897 7.318026810912514  1.0652667178991175 7.912746942615243  1.066956063757897 8.506634132957041  C 1.0678007366872868 8.772342427093134  1.1860549468021648 8.886455393540299  1.45381626541942 8.892285983066795  C 1.5306815019940925 8.893951865788651  1.607546738568765 8.89311892442772  1.6844119751434379 8.89311892442772  Z " fill-rule="nonzero" fill="rgba(245, 154, 35, 1)" stroke="none" transform="matrix(1 0 0 1 208 838 )" class="fill" />
    <path d="M 5.947476249784689 9.93762739103167  C 4.382297311621373 9.93762739103167  2.8179630463874465 9.929297977422388  1.252784108224131 9.942625039197242  C 0.7704758655413122 9.946789746001883  0.23326388244801283 9.596121433051115  0.07362069879293902 9.095523675133272  C 0.026319014746995502 8.94809305424898  0.01364892080610062 8.798996550642835  0.01364892080610062 8.646568281592979  C 0.01449359373549041 6.914050250862341  0.01449359373549041 5.180699278770776  0.01449359373549041 3.448181248040141  C 0.01449359373549041 2.7526752116651023  0.03138705232333425 2.056336233929133  0.008580883229742667 1.3616631389150236  C -0.009157248287490956 0.810255957980561  0.43345136671390216 0.09475932894324521  1.2688328938825564 0.06394049858890227  C 1.5695364567460997 0.05311226089683648  1.8719293654684226 0.05727696770147617  2.172632928331966 0.06060873314518863  C 2.333120784916439 0.06227461586704426  2.356771626939411 0.08976168077767473  2.3626843374451587 0.2538511288805279  C 2.367752375021507 0.4054464565694585  2.3593056457276 0.5578747256193186  2.3702863938096956 0.7086371119473196  C 2.417588077855639 1.3841525556600822  3.1744150225908414 1.7806326434619018  3.763152054377052 1.4349619786767023  C 4.072302346534503 1.2533807619943562  4.22180945503688 0.9660159924741313  4.244615624130471 0.6161806208842909  C 4.252217680495009 0.4962370649106317  4.245460297059862 0.3762935089369724  4.247149642918651 0.25551701160238477  C 4.25052833463621 0.07976638444653616  4.264887774435884 0.06643932267168513  4.449026473043329 0.059775791784260214  C 4.481124044360218 0.058942850423331805  4.513221615677117 0.058942850423331805  4.545319186994006 0.058942850423331805  C 5.494731559630579 0.058942850423331805  6.443299259337763 0.05810990906240339  7.392711631974336 0.05810990906240339  C 7.41213910935035 0.05810990906240339  7.4315665867263725 0.05810990906240339  7.450149391172987 0.05810990906240339  C 7.674832390391247 0.06227461586704308  7.688347157261522 0.07393579492003848  7.6891918301909215 0.2971640796487935  C 7.6891918301909215 0.44875940733772407  7.702706597061187 0.5995217936657273  7.714532018072672 0.751117121354658  C 7.7440955706013925 1.137601912825339  8.11997502418081 1.5740631859517105  8.674080465861953 1.564067889620573  C 9.145407960462666 1.5549055346503629  9.541559564347496 1.1475972091564774  9.560987041723518 0.6769853402320496  C 9.566899752229267 0.5253900125431189  9.560142368794128 0.3737946848541872  9.564365733441079 0.22136641580432936  C 9.568589098088037 0.09475932894324401  9.589705921322839 0.06394049858890109  9.705426112649539 0.06477343994982951  C 10.082994912087743 0.06727226403261473  10.463097730314129 0.02562519598620483  10.838132510964167 0.08726285669489069  C 11.437850290832465 0.18554993728441715  11.893973672704123 0.7044724051426788  11.912556477150746 1.3025243022891206  C 11.920158533515274 1.5365808247099424  11.915935168868316 1.7706373471307646  11.915935168868316 2.0046938695515855  C 11.915935168868316 4.199494355597366  11.915090495938925 6.3934619002822215  11.916779841797705 8.588262386328005  C 11.916779841797705 8.873961273126376  11.866944138963573 9.14300133270618  11.696320207226403 9.379556679209788  C 11.438694963761854 9.736055581687053  11.097447100287495 9.93929327375353  10.641323718415826 9.938460332392603  C 9.07698945318194 9.935961508309816  7.511810515018624 9.93762739103167  5.947476249784689 9.93762739103167  Z " stroke-width="0" stroke-dasharray="0" stroke="rgba(245, 154, 35, 1)" fill="none" transform="matrix(1 0 0 1 208 838 )" class="stroke" mask="url(#Clip957)" />
    <path d="M 1.6844119751434379 8.89311892442772  C 3.1076858611688944 8.89395186578865  4.53095974719436 8.89395186578865  5.954233633219825 8.89395186578865  C 5.954233633219825 8.894784807149575  5.954233633219825 8.895617748510507  5.954233633219825 8.896450689871433  C 7.416362473997319 8.896450689871433  8.87764664184543 8.896450689871433  10.339775482622922 8.896450689871433  C 10.409883335762459 8.896450689871433  10.480835861831373 8.899782455315146  10.550943714970918 8.892285983066792  C 10.724946338425656 8.875627155848228  10.844889894399323 8.756516541235497  10.863472698845946 8.586596503606145  C 10.868540736422295 8.536620021950455  10.866851390563516 8.485810598933835  10.866851390563516 8.435001175917217  C 10.866851390563516 6.728304327375353  10.866851390563516 5.020774537472562  10.866851390563516 3.3140776889306993  C 10.866851390563516 2.88677877077454  10.782384097624316 2.802651693320791  10.35160090363441 2.802651693320791  C 7.415517801067928 2.802651693320791  4.478590025572059 2.802651693320791  1.5425069230055786 2.8034846346817197  C 1.4909818743126668 2.8034846346817197  1.439456825619755 2.801818751959864  1.3887764498562332 2.805983458764505  C 1.2012590595312194 2.8201434619002845  1.084694195275121 2.934256428347447  1.069490082546076 3.1208352931953605  C 1.0652667178991175 3.1708117748510505  1.066956063757897 3.221621197867672  1.066956063757897 3.2724306208842906  C 1.066956063757897 4.422722640326124  1.066956063757897 5.5738476011288824  1.066956063757897 6.724139620570712  C 1.066956063757897 7.318026810912514  1.0652667178991175 7.912746942615243  1.066956063757897 8.506634132957041  C 1.0678007366872868 8.772342427093134  1.1860549468021648 8.886455393540299  1.45381626541942 8.892285983066795  C 1.5306815019940925 8.893951865788651  1.607546738568765 8.89311892442772  1.6844119751434379 8.89311892442772  Z " stroke-width="0" stroke-dasharray="0" stroke="rgba(245, 154, 35, 1)" fill="none" transform="matrix(1 0 0 1 208 838 )" class="stroke" mask="url(#Clip957)" />
  </g>
</svg>