<?xml version="1.0" encoding="utf-8"?>
<svg version="1.1" xmlns:xlink="http://www.w3.org/1999/xlink" width="16px" height="6px" xmlns="http://www.w3.org/2000/svg">
  <defs>
    <pattern id="BGPattern" patternUnits="userSpaceOnUse" alignment="0 0" imageRepeat="None" />
    <mask fill="white" id="Clip958">
      <path d="M 9.106277762965256 5.927512844634201  C 8.834320181506284 5.947810984875897  8.563217812567602 5.961650625949776  8.289549806067981 5.9634959114263  C 6.68688154300461 5.9431977711845985  5.165458469370814 5.563068963021934  3.734687922890017 4.772364136334035  C 2.68277652290712 4.191099211230915  1.7642782760927915 3.422537810261236  0.9612337195204822 2.4925139300962464  C 0.7098012385489574 2.2009588248064267  0.4703417328617939 1.8946414357044685  0.26081466538552656 1.5652579781460312  C -0.03508886664217803 1.1002460380635364  0.03332813498271956 0.5761849627324707  0.42416025676498625 0.2643317172009574  C 0.8577530045628146 -0.08165930964613696  1.433311030732317 -0.01615167522975473  1.747174025686561 0.4276394818727848  C 2.2945100386857904 1.201736739272018  2.929077728756771 1.8761885809392878  3.669691771346361 2.4343874375859347  C 4.694236370679289 3.2066394095086497  5.825682535051136 3.6827230624502523  7.058043776819718 3.8893950358202494  C 7.690045829329762 3.9954989507200267  8.32632394444137 4.013951805485205  8.96089163451235 3.965974383095742  C 9.814393729783033 3.9004667486793565  10.63796338684281 3.6808777769737366  11.424758905529197 3.3081301107171344  C 12.125177959664152 2.975978724943922  12.766587349897625 2.54325928070049  13.344711013628059 2.002590636080762  C 13.443915665984168 1.9094037195166127  13.545685955901222 1.8660395108184424  13.677388684029152 1.8660395108184424  C 14.365834762879752 1.8706527245097382  15.053425629210041 1.8660395108184424  15.74187170806063 1.8678847962949632  C 15.802591797002732 1.8678847962949632  15.886402623993238 1.8365149431941596  15.917190274724442 1.9121716477313901  C 15.947122712935338 1.985060424053843  15.873574436188562 2.0376510601346047  15.835945085294865 2.0902416962153616  C 15.321962360587777 2.8025218901512465  14.714761471166746 3.4105434546638747  14.04085400516145 3.9419856719010116  C 13.147156921436133 4.645962081192566  12.175635498362515 5.183862797597515  11.111751123095251 5.521550039800279  C 10.455803120016496 5.729144655908535  9.789592566693981 5.873076923076928  9.106277762965256 5.927512844634201  Z " fill-rule="evenodd" />
    </mask>
  </defs>
  <g transform="matrix(1 0 0 1 -201 -847 )">
    <path d="M 9.106277762965256 5.927512844634201  C 8.834320181506284 5.947810984875897  8.563217812567602 5.961650625949776  8.289549806067981 5.9634959114263  C 6.68688154300461 5.9431977711845985  5.165458469370814 5.563068963021934  3.734687922890017 4.772364136334035  C 2.68277652290712 4.191099211230915  1.7642782760927915 3.422537810261236  0.9612337195204822 2.4925139300962464  C 0.7098012385489574 2.2009588248064267  0.4703417328617939 1.8946414357044685  0.26081466538552656 1.5652579781460312  C -0.03508886664217803 1.1002460380635364  0.03332813498271956 0.5761849627324707  0.42416025676498625 0.2643317172009574  C 0.8577530045628146 -0.08165930964613696  1.433311030732317 -0.01615167522975473  1.747174025686561 0.4276394818727848  C 2.2945100386857904 1.201736739272018  2.929077728756771 1.8761885809392878  3.669691771346361 2.4343874375859347  C 4.694236370679289 3.2066394095086497  5.825682535051136 3.6827230624502523  7.058043776819718 3.8893950358202494  C 7.690045829329762 3.9954989507200267  8.32632394444137 4.013951805485205  8.96089163451235 3.965974383095742  C 9.814393729783033 3.9004667486793565  10.63796338684281 3.6808777769737366  11.424758905529197 3.3081301107171344  C 12.125177959664152 2.975978724943922  12.766587349897625 2.54325928070049  13.344711013628059 2.002590636080762  C 13.443915665984168 1.9094037195166127  13.545685955901222 1.8660395108184424  13.677388684029152 1.8660395108184424  C 14.365834762879752 1.8706527245097382  15.053425629210041 1.8660395108184424  15.74187170806063 1.8678847962949632  C 15.802591797002732 1.8678847962949632  15.886402623993238 1.8365149431941596  15.917190274724442 1.9121716477313901  C 15.947122712935338 1.985060424053843  15.873574436188562 2.0376510601346047  15.835945085294865 2.0902416962153616  C 15.321962360587777 2.8025218901512465  14.714761471166746 3.4105434546638747  14.04085400516145 3.9419856719010116  C 13.147156921436133 4.645962081192566  12.175635498362515 5.183862797597515  11.111751123095251 5.521550039800279  C 10.455803120016496 5.729144655908535  9.789592566693981 5.873076923076928  9.106277762965256 5.927512844634201  Z " fill-rule="nonzero" fill="rgba(245, 154, 35, 1)" stroke="none" transform="matrix(1 0 0 1 201 847 )" class="fill" />
    <path d="M 9.106277762965256 5.927512844634201  C 8.834320181506284 5.947810984875897  8.563217812567602 5.961650625949776  8.289549806067981 5.9634959114263  C 6.68688154300461 5.9431977711845985  5.165458469370814 5.563068963021934  3.734687922890017 4.772364136334035  C 2.68277652290712 4.191099211230915  1.7642782760927915 3.422537810261236  0.9612337195204822 2.4925139300962464  C 0.7098012385489574 2.2009588248064267  0.4703417328617939 1.8946414357044685  0.26081466538552656 1.5652579781460312  C -0.03508886664217803 1.1002460380635364  0.03332813498271956 0.5761849627324707  0.42416025676498625 0.2643317172009574  C 0.8577530045628146 -0.08165930964613696  1.433311030732317 -0.01615167522975473  1.747174025686561 0.4276394818727848  C 2.2945100386857904 1.201736739272018  2.929077728756771 1.8761885809392878  3.669691771346361 2.4343874375859347  C 4.694236370679289 3.2066394095086497  5.825682535051136 3.6827230624502523  7.058043776819718 3.8893950358202494  C 7.690045829329762 3.9954989507200267  8.32632394444137 4.013951805485205  8.96089163451235 3.965974383095742  C 9.814393729783033 3.9004667486793565  10.63796338684281 3.6808777769737366  11.424758905529197 3.3081301107171344  C 12.125177959664152 2.975978724943922  12.766587349897625 2.54325928070049  13.344711013628059 2.002590636080762  C 13.443915665984168 1.9094037195166127  13.545685955901222 1.8660395108184424  13.677388684029152 1.8660395108184424  C 14.365834762879752 1.8706527245097382  15.053425629210041 1.8660395108184424  15.74187170806063 1.8678847962949632  C 15.802591797002732 1.8678847962949632  15.886402623993238 1.8365149431941596  15.917190274724442 1.9121716477313901  C 15.947122712935338 1.985060424053843  15.873574436188562 2.0376510601346047  15.835945085294865 2.0902416962153616  C 15.321962360587777 2.8025218901512465  14.714761471166746 3.4105434546638747  14.04085400516145 3.9419856719010116  C 13.147156921436133 4.645962081192566  12.175635498362515 5.183862797597515  11.111751123095251 5.521550039800279  C 10.455803120016496 5.729144655908535  9.789592566693981 5.873076923076928  9.106277762965256 5.927512844634201  Z " stroke-width="0" stroke-dasharray="0" stroke="rgba(245, 154, 35, 1)" fill="none" transform="matrix(1 0 0 1 201 847 )" class="stroke" mask="url(#Clip958)" />
  </g>
</svg>