<?xml version="1.0" encoding="utf-8"?>
<svg version="1.1" xmlns:xlink="http://www.w3.org/1999/xlink" width="1px" height="2px" xmlns="http://www.w3.org/2000/svg">
  <defs>
    <pattern id="BGPattern" patternUnits="userSpaceOnUse" alignment="0 0" imageRepeat="None" />
    <mask fill="white" id="Clip959">
      <path d="M 0.0354882016306135 0.9997930385700852  C 0.0354882016306135 0.8246754468485427  0.03465526026967799 0.6487582314205088  0.0354882016306135 0.4736406396989662  C 0.03715408435246559 0.2961241768579498  0.10712115867043319 0.1537911571025404  0.2812059031044309 0.07702728127939963  C 0.46028829570398483 -0.0021354656632161097  0.6368718642207701 0.00666039510818564  0.803460136406405 0.11141110065851535  C 0.9250695751019199 0.18737535277516712  0.9767119394794671 0.3073189087488265  0.9808766462841069 0.4368579492003789  C 0.9917048839761738 0.7998871119473222  0.994203708058952 1.1629162746942643  0.9767119394794671 1.5251458137347151  C 0.975046056757615 1.5555315145813757  0.9683825258701878 1.5851175917215448  0.962551936343696 1.6147036688617151  C 0.918406044214502 1.844195672624651  0.7259965898400841 2.00252116650988  0.5036012464722622 1.9913264346190056  C 0.2303964800878191 1.9777328316086573  0.04548349796175444 1.8122107243650079  0.035488201630622974 1.5619285042333035  C 0.02882467074317674 1.3756161806208842  0.0354882016306135 1.1877046095954846  0.0354882016306135 0.9997930385700852  Z " fill-rule="evenodd" />
    </mask>
  </defs>
  <g transform="matrix(1 0 0 1 -210 -836 )">
    <path d="M 0.0354882016306135 0.9997930385700852  C 0.0354882016306135 0.8246754468485427  0.03465526026967799 0.6487582314205088  0.0354882016306135 0.4736406396989662  C 0.03715408435246559 0.2961241768579498  0.10712115867043319 0.1537911571025404  0.2812059031044309 0.07702728127939963  C 0.46028829570398483 -0.0021354656632161097  0.6368718642207701 0.00666039510818564  0.803460136406405 0.11141110065851535  C 0.9250695751019199 0.18737535277516712  0.9767119394794671 0.3073189087488265  0.9808766462841069 0.4368579492003789  C 0.9917048839761738 0.7998871119473222  0.994203708058952 1.1629162746942643  0.9767119394794671 1.5251458137347151  C 0.975046056757615 1.5555315145813757  0.9683825258701878 1.5851175917215448  0.962551936343696 1.6147036688617151  C 0.918406044214502 1.844195672624651  0.7259965898400841 2.00252116650988  0.5036012464722622 1.9913264346190056  C 0.2303964800878191 1.9777328316086573  0.04548349796175444 1.8122107243650079  0.035488201630622974 1.5619285042333035  C 0.02882467074317674 1.3756161806208842  0.0354882016306135 1.1877046095954846  0.0354882016306135 0.9997930385700852  Z " fill-rule="nonzero" fill="rgba(245, 154, 35, 1)" stroke="none" transform="matrix(1 0 0 1 210 836 )" class="fill" />
    <path d="M 0.0354882016306135 0.9997930385700852  C 0.0354882016306135 0.8246754468485427  0.03465526026967799 0.6487582314205088  0.0354882016306135 0.4736406396989662  C 0.03715408435246559 0.2961241768579498  0.10712115867043319 0.1537911571025404  0.2812059031044309 0.07702728127939963  C 0.46028829570398483 -0.0021354656632161097  0.6368718642207701 0.00666039510818564  0.803460136406405 0.11141110065851535  C 0.9250695751019199 0.18737535277516712  0.9767119394794671 0.3073189087488265  0.9808766462841069 0.4368579492003789  C 0.9917048839761738 0.7998871119473222  0.994203708058952 1.1629162746942643  0.9767119394794671 1.5251458137347151  C 0.975046056757615 1.5555315145813757  0.9683825258701878 1.5851175917215448  0.962551936343696 1.6147036688617151  C 0.918406044214502 1.844195672624651  0.7259965898400841 2.00252116650988  0.5036012464722622 1.9913264346190056  C 0.2303964800878191 1.9777328316086573  0.04548349796175444 1.8122107243650079  0.035488201630622974 1.5619285042333035  C 0.02882467074317674 1.3756161806208842  0.0354882016306135 1.1877046095954846  0.0354882016306135 0.9997930385700852  Z " stroke-width="0" stroke-dasharray="0" stroke="rgba(245, 154, 35, 1)" fill="none" transform="matrix(1 0 0 1 210 836 )" class="stroke" mask="url(#Clip959)" />
  </g>
</svg>