<?xml version="1.0" encoding="utf-8"?>
<svg version="1.1" xmlns:xlink="http://www.w3.org/1999/xlink" width="1px" height="2px" xmlns="http://www.w3.org/2000/svg">
  <defs>
    <pattern id="BGPattern" patternUnits="userSpaceOnUse" alignment="0 0" imageRepeat="None" />
    <mask fill="white" id="Clip960">
      <path d="M 0.9809060442144926 1.0181843838193787  C 0.9809060442144926 1.1941015992474127  0.9850707510191322 1.3700188146754477  0.9800731028535665 1.5459360301034804  C 0.9725766306052037 1.797817497648166  0.7859977657572964 1.9817309501411091  0.5294518265914121 1.9977234242709312  C 0.30705648322359025 2.0121166509877706  0.0954893775478259 1.845794920037629  0.049677602696779864 1.6139040451552216  C 0.03551759956099924 1.5427375352775163  0.03135289275635955 1.4691721542803384  0.030519951395424034 1.397206020696143  C 0.02885406867357195 1.1429256820319846  0.02885406867357195 0.8878457196613363  0.03135289275635955 0.6335653809971791  C 0.032185834117285594 0.5607996237064924  0.03968230636563893 0.4880338664158057  0.04884466133585382 0.4160677328316092  C 0.07133407808091381 0.2369520225776114  0.1679552759485811 0.10741298212605897  0.34787060990907054 0.053038570084665934  C 0.5352824161179134 -0.003734713076198659  0.7110330432737632 0.03224835371589847  0.8601295468799132 0.1593885230479782  C 0.9517530965820148 0.23695202257761025  0.981738985575428 0.34010348071495855  0.981738985575428 0.45444967074318016  C 0.980906044214502 0.6423612417685786  0.981738985575428 0.8302728127939792  0.981738985575428 1.0181843838193787  Z " fill-rule="evenodd" />
    </mask>
  </defs>
  <g transform="matrix(1 0 0 1 -216 -836 )">
    <path d="M 0.9809060442144926 1.0181843838193787  C 0.9809060442144926 1.1941015992474127  0.9850707510191322 1.3700188146754477  0.9800731028535665 1.5459360301034804  C 0.9725766306052037 1.797817497648166  0.7859977657572964 1.9817309501411091  0.5294518265914121 1.9977234242709312  C 0.30705648322359025 2.0121166509877706  0.0954893775478259 1.845794920037629  0.049677602696779864 1.6139040451552216  C 0.03551759956099924 1.5427375352775163  0.03135289275635955 1.4691721542803384  0.030519951395424034 1.397206020696143  C 0.02885406867357195 1.1429256820319846  0.02885406867357195 0.8878457196613363  0.03135289275635955 0.6335653809971791  C 0.032185834117285594 0.5607996237064924  0.03968230636563893 0.4880338664158057  0.04884466133585382 0.4160677328316092  C 0.07133407808091381 0.2369520225776114  0.1679552759485811 0.10741298212605897  0.34787060990907054 0.053038570084665934  C 0.5352824161179134 -0.003734713076198659  0.7110330432737632 0.03224835371589847  0.8601295468799132 0.1593885230479782  C 0.9517530965820148 0.23695202257761025  0.981738985575428 0.34010348071495855  0.981738985575428 0.45444967074318016  C 0.980906044214502 0.6423612417685786  0.981738985575428 0.8302728127939792  0.981738985575428 1.0181843838193787  Z " fill-rule="nonzero" fill="rgba(245, 154, 35, 1)" stroke="none" transform="matrix(1 0 0 1 216 836 )" class="fill" />
    <path d="M 0.9809060442144926 1.0181843838193787  C 0.9809060442144926 1.1941015992474127  0.9850707510191322 1.3700188146754477  0.9800731028535665 1.5459360301034804  C 0.9725766306052037 1.797817497648166  0.7859977657572964 1.9817309501411091  0.5294518265914121 1.9977234242709312  C 0.30705648322359025 2.0121166509877706  0.0954893775478259 1.845794920037629  0.049677602696779864 1.6139040451552216  C 0.03551759956099924 1.5427375352775163  0.03135289275635955 1.4691721542803384  0.030519951395424034 1.397206020696143  C 0.02885406867357195 1.1429256820319846  0.02885406867357195 0.8878457196613363  0.03135289275635955 0.6335653809971791  C 0.032185834117285594 0.5607996237064924  0.03968230636563893 0.4880338664158057  0.04884466133585382 0.4160677328316092  C 0.07133407808091381 0.2369520225776114  0.1679552759485811 0.10741298212605897  0.34787060990907054 0.053038570084665934  C 0.5352824161179134 -0.003734713076198659  0.7110330432737632 0.03224835371589847  0.8601295468799132 0.1593885230479782  C 0.9517530965820148 0.23695202257761025  0.981738985575428 0.34010348071495855  0.981738985575428 0.45444967074318016  C 0.980906044214502 0.6423612417685786  0.981738985575428 0.8302728127939792  0.981738985575428 1.0181843838193787  Z " stroke-width="0" stroke-dasharray="0" stroke="rgba(245, 154, 35, 1)" fill="none" transform="matrix(1 0 0 1 216 836 )" class="stroke" mask="url(#Clip960)" />
  </g>
</svg>