<?xml version="1.0" encoding="utf-8"?>
<svg version="1.1" xmlns:xlink="http://www.w3.org/1999/xlink" width="21px" height="20px" xmlns="http://www.w3.org/2000/svg">
  <defs>
    <pattern id="BGPattern" patternUnits="userSpaceOnUse" alignment="0 0" imageRepeat="None" />
    <mask fill="white" id="Clip962">
      <path d="M 9.333333333333332 1.5384615384615374  L 9.333333333333332 10.697115384615383  L 15.96875 17.259615384615383  C 15.109953703703704 18.125  14.107349537037038 18.798076923076923  12.9609375 19.278846153846153  C 11.814525462962965 19.759615384615387  10.605324074074074 20  9.333333333333332 20  C 7.640046296296297 20  6.078414351851852 19.587339743589745  4.6484375 18.76201923076923  C 3.218460648148149 17.93669871794872  2.086226851851852 16.81690705128205  1.2517361111111112 15.402644230769232  C 0.41724537037037035 13.988381410256409  0 12.443910256410255  0 10.769230769230768  C 0 9.09455128205128  0.41724537037037035 7.550080128205126  1.2517361111111112 6.135817307692308  C 2.086226851851852 4.721554487179487  3.218460648148149 3.6017628205128194  4.6484375 2.7764423076923084  C 6.078414351851852 1.951121794871793  7.640046296296297 1.5384615384615374  9.333333333333332 1.5384615384615374  Z M 18.229166666666668 17.33173076923077  L 11.605902777777779 10.769230769230768  L 21 10.769230769230768  C 21.000000000000004 12.027243589743591  20.756944444444446 13.223157051282048  20.270833333333332 14.356971153846153  C 19.784722222222225 15.490785256410255  19.104166666666668 16.482371794871792  18.229166666666668 17.33173076923077  Z M 18.97048611111111 4.597355769230768  C 19.80497685185185 6.011618589743588  20.22222222222222 7.556089743589743  20.22222222222222 9.230769230769232  L 10.888888888888888 9.230769230769232  L 10.888888888888888 0  C 12.582175925925927 0  14.143807870370372 0.4126602564102577  15.573784722222221 1.2379807692307687  C 17.003761574074073 2.0633012820512797  18.13599537037037 3.183092948717947  18.97048611111111 4.597355769230768  Z " fill-rule="evenodd" />
    </mask>
  </defs>
  <g transform="matrix(1 0 0 1 -274 -833 )">
    <path d="M 9.333333333333332 1.5384615384615374  L 9.333333333333332 10.697115384615383  L 15.96875 17.259615384615383  C 15.109953703703704 18.125  14.107349537037038 18.798076923076923  12.9609375 19.278846153846153  C 11.814525462962965 19.759615384615387  10.605324074074074 20  9.333333333333332 20  C 7.640046296296297 20  6.078414351851852 19.587339743589745  4.6484375 18.76201923076923  C 3.218460648148149 17.93669871794872  2.086226851851852 16.81690705128205  1.2517361111111112 15.402644230769232  C 0.41724537037037035 13.988381410256409  0 12.443910256410255  0 10.769230769230768  C 0 9.09455128205128  0.41724537037037035 7.550080128205126  1.2517361111111112 6.135817307692308  C 2.086226851851852 4.721554487179487  3.218460648148149 3.6017628205128194  4.6484375 2.7764423076923084  C 6.078414351851852 1.951121794871793  7.640046296296297 1.5384615384615374  9.333333333333332 1.5384615384615374  Z M 18.229166666666668 17.33173076923077  L 11.605902777777779 10.769230769230768  L 21 10.769230769230768  C 21.000000000000004 12.027243589743591  20.756944444444446 13.223157051282048  20.270833333333332 14.356971153846153  C 19.784722222222225 15.490785256410255  19.104166666666668 16.482371794871792  18.229166666666668 17.33173076923077  Z M 18.97048611111111 4.597355769230768  C 19.80497685185185 6.011618589743588  20.22222222222222 7.556089743589743  20.22222222222222 9.230769230769232  L 10.888888888888888 9.230769230769232  L 10.888888888888888 0  C 12.582175925925927 0  14.143807870370372 0.4126602564102577  15.573784722222221 1.2379807692307687  C 17.003761574074073 2.0633012820512797  18.13599537037037 3.183092948717947  18.97048611111111 4.597355769230768  Z " fill-rule="nonzero" fill="rgba(0, 0, 0, 0)" stroke="none" transform="matrix(1 0 0 1 274 833 )" class="fill" />
    <path d="M 9.333333333333332 1.5384615384615374  L 9.333333333333332 10.697115384615383  L 15.96875 17.259615384615383  C 15.109953703703704 18.125  14.107349537037038 18.798076923076923  12.9609375 19.278846153846153  C 11.814525462962965 19.759615384615387  10.605324074074074 20  9.333333333333332 20  C 7.640046296296297 20  6.078414351851852 19.587339743589745  4.6484375 18.76201923076923  C 3.218460648148149 17.93669871794872  2.086226851851852 16.81690705128205  1.2517361111111112 15.402644230769232  C 0.41724537037037035 13.988381410256409  0 12.443910256410255  0 10.769230769230768  C 0 9.09455128205128  0.41724537037037035 7.550080128205126  1.2517361111111112 6.135817307692308  C 2.086226851851852 4.721554487179487  3.218460648148149 3.6017628205128194  4.6484375 2.7764423076923084  C 6.078414351851852 1.951121794871793  7.640046296296297 1.5384615384615374  9.333333333333332 1.5384615384615374  Z " stroke-width="4" stroke-dasharray="0" stroke="rgba(245, 154, 35, 1)" fill="none" transform="matrix(1 0 0 1 274 833 )" class="stroke" mask="url(#Clip962)" />
    <path d="M 18.229166666666668 17.33173076923077  L 11.605902777777779 10.769230769230768  L 21 10.769230769230768  C 21.000000000000004 12.027243589743591  20.756944444444446 13.223157051282048  20.270833333333332 14.356971153846153  C 19.784722222222225 15.490785256410255  19.104166666666668 16.482371794871792  18.229166666666668 17.33173076923077  Z " stroke-width="4" stroke-dasharray="0" stroke="rgba(245, 154, 35, 1)" fill="none" transform="matrix(1 0 0 1 274 833 )" class="stroke" mask="url(#Clip962)" />
    <path d="M 18.97048611111111 4.597355769230768  C 19.80497685185185 6.011618589743588  20.22222222222222 7.556089743589743  20.22222222222222 9.230769230769232  L 10.888888888888888 9.230769230769232  L 10.888888888888888 0  C 12.582175925925927 0  14.143807870370372 0.4126602564102577  15.573784722222221 1.2379807692307687  C 17.003761574074073 2.0633012820512797  18.13599537037037 3.183092948717947  18.97048611111111 4.597355769230768  Z " stroke-width="4" stroke-dasharray="0" stroke="rgba(245, 154, 35, 1)" fill="none" transform="matrix(1 0 0 1 274 833 )" class="stroke" mask="url(#Clip962)" />
  </g>
</svg>