<?xml version="1.0" encoding="utf-8"?>
<svg version="1.1" xmlns:xlink="http://www.w3.org/1999/xlink" width="20px" height="21px" xmlns="http://www.w3.org/2000/svg">
  <defs>
    <pattern id="BGPattern" patternUnits="userSpaceOnUse" alignment="0 0" imageRepeat="None" />
    <mask fill="white" id="Clip964">
      <path d="M 19.951923076923208 17.331341911764586  C 19.951923076923208 17.63005514705885  19.848257211538396 17.8828125  19.64092548076934 18.089613970588314  L 18.051382211538396 19.675091911764746  C 17.84405048076934 19.881893382353063  17.590645032051384 19.985294117646937  17.291165865384528 19.985294117646937  C 16.991686698717956 19.985294117646937  16.726762820512704 19.881893382353063  16.49639423076934 19.675091911764746  L 10 13.160845588235334  L 3.50360576923066 19.675091911764746  C 3.273237179487296 19.881893382353063  3.008313301282044 19.985294117646937  2.708834134615472 19.985294117646937  C 2.409354967948616 19.985294117646937  2.15594951923066 19.881893382353063  1.948617788461604 19.675091911764746  L 0.3590745192306599 18.089613970588314  C 0.15174278846160405 17.8828125  0.0480769230767919 17.63005514705885  0.0480769230767919 17.331341911764586  C 0.0480769230767919 17.0326286764706  0.15174278846160405 16.76838235294124  0.3590745192306599 16.53860294117651  L 6.890024038461604 10.058823529411724  L 0.3590745192306599 3.579044117646938  C 0.15174278846160405 3.349264705882487  0.0480769230767919 3.0850183823528474  0.0480769230767919 2.786305147058864  C 0.0480769230767919 2.487591911764599  0.15174278846160405 2.234834558823449  0.3590745192306599 2.0280330882354147  L 1.948617788461604 0.44255514705870314  C 2.15594951923066 0.2357536764706685  2.409354967948616 0.13235294117651072  2.708834134615472 0.13235294117651072  C 3.008313301282044 0.13235294117651072  3.273237179487296 0.2357536764706685  3.50360576923066 0.44255514705870314  L 10 6.922334558823489  L 16.49639423076934 0.44255514705870314  C 16.726762820512704 0.2357536764706685  16.991686698717956 0.13235294117651072  17.291165865384528 0.13235294117651072  C 17.590645032051384 0.13235294117651072  17.84405048076934 0.2357536764706685  18.051382211538396 0.44255514705870314  L 19.64092548076934 2.0280330882354147  C 19.848257211538396 2.234834558823449  19.951923076923208 2.487591911764599  19.951923076923208 2.786305147058864  C 19.951923076923208 3.0850183823528474  19.848257211538396 3.349264705882487  19.64092548076934 3.579044117646938  L 13.14453125 10.058823529411724  L 19.64092548076934 16.53860294117651  C 19.848257211538396 16.76838235294124  19.951923076923208 17.0326286764706  19.951923076923208 17.331341911764586  Z " fill-rule="evenodd" />
    </mask>
  </defs>
  <g transform="matrix(1 0 0 1 -229 -19 )">
    <path d="M 19.951923076923208 17.331341911764586  C 19.951923076923208 17.63005514705885  19.848257211538396 17.8828125  19.64092548076934 18.089613970588314  L 18.051382211538396 19.675091911764746  C 17.84405048076934 19.881893382353063  17.590645032051384 19.985294117646937  17.291165865384528 19.985294117646937  C 16.991686698717956 19.985294117646937  16.726762820512704 19.881893382353063  16.49639423076934 19.675091911764746  L 10 13.160845588235334  L 3.50360576923066 19.675091911764746  C 3.273237179487296 19.881893382353063  3.008313301282044 19.985294117646937  2.708834134615472 19.985294117646937  C 2.409354967948616 19.985294117646937  2.15594951923066 19.881893382353063  1.948617788461604 19.675091911764746  L 0.3590745192306599 18.089613970588314  C 0.15174278846160405 17.8828125  0.0480769230767919 17.63005514705885  0.0480769230767919 17.331341911764586  C 0.0480769230767919 17.0326286764706  0.15174278846160405 16.76838235294124  0.3590745192306599 16.53860294117651  L 6.890024038461604 10.058823529411724  L 0.3590745192306599 3.579044117646938  C 0.15174278846160405 3.349264705882487  0.0480769230767919 3.0850183823528474  0.0480769230767919 2.786305147058864  C 0.0480769230767919 2.487591911764599  0.15174278846160405 2.234834558823449  0.3590745192306599 2.0280330882354147  L 1.948617788461604 0.44255514705870314  C 2.15594951923066 0.2357536764706685  2.409354967948616 0.13235294117651072  2.708834134615472 0.13235294117651072  C 3.008313301282044 0.13235294117651072  3.273237179487296 0.2357536764706685  3.50360576923066 0.44255514705870314  L 10 6.922334558823489  L 16.49639423076934 0.44255514705870314  C 16.726762820512704 0.2357536764706685  16.991686698717956 0.13235294117651072  17.291165865384528 0.13235294117651072  C 17.590645032051384 0.13235294117651072  17.84405048076934 0.2357536764706685  18.051382211538396 0.44255514705870314  L 19.64092548076934 2.0280330882354147  C 19.848257211538396 2.234834558823449  19.951923076923208 2.487591911764599  19.951923076923208 2.786305147058864  C 19.951923076923208 3.0850183823528474  19.848257211538396 3.349264705882487  19.64092548076934 3.579044117646938  L 13.14453125 10.058823529411724  L 19.64092548076934 16.53860294117651  C 19.848257211538396 16.76838235294124  19.951923076923208 17.0326286764706  19.951923076923208 17.331341911764586  Z " fill-rule="nonzero" fill="rgba(127, 127, 127, 1)" stroke="none" transform="matrix(1 0 0 1 229 19 )" class="fill" />
    <path d="M 19.951923076923208 17.331341911764586  C 19.951923076923208 17.63005514705885  19.848257211538396 17.8828125  19.64092548076934 18.089613970588314  L 18.051382211538396 19.675091911764746  C 17.84405048076934 19.881893382353063  17.590645032051384 19.985294117646937  17.291165865384528 19.985294117646937  C 16.991686698717956 19.985294117646937  16.726762820512704 19.881893382353063  16.49639423076934 19.675091911764746  L 10 13.160845588235334  L 3.50360576923066 19.675091911764746  C 3.273237179487296 19.881893382353063  3.008313301282044 19.985294117646937  2.708834134615472 19.985294117646937  C 2.409354967948616 19.985294117646937  2.15594951923066 19.881893382353063  1.948617788461604 19.675091911764746  L 0.3590745192306599 18.089613970588314  C 0.15174278846160405 17.8828125  0.0480769230767919 17.63005514705885  0.0480769230767919 17.331341911764586  C 0.0480769230767919 17.0326286764706  0.15174278846160405 16.76838235294124  0.3590745192306599 16.53860294117651  L 6.890024038461604 10.058823529411724  L 0.3590745192306599 3.579044117646938  C 0.15174278846160405 3.349264705882487  0.0480769230767919 3.0850183823528474  0.0480769230767919 2.786305147058864  C 0.0480769230767919 2.487591911764599  0.15174278846160405 2.234834558823449  0.3590745192306599 2.0280330882354147  L 1.948617788461604 0.44255514705870314  C 2.15594951923066 0.2357536764706685  2.409354967948616 0.13235294117651072  2.708834134615472 0.13235294117651072  C 3.008313301282044 0.13235294117651072  3.273237179487296 0.2357536764706685  3.50360576923066 0.44255514705870314  L 10 6.922334558823489  L 16.49639423076934 0.44255514705870314  C 16.726762820512704 0.2357536764706685  16.991686698717956 0.13235294117651072  17.291165865384528 0.13235294117651072  C 17.590645032051384 0.13235294117651072  17.84405048076934 0.2357536764706685  18.051382211538396 0.44255514705870314  L 19.64092548076934 2.0280330882354147  C 19.848257211538396 2.234834558823449  19.951923076923208 2.487591911764599  19.951923076923208 2.786305147058864  C 19.951923076923208 3.0850183823528474  19.848257211538396 3.349264705882487  19.64092548076934 3.579044117646938  L 13.14453125 10.058823529411724  L 19.64092548076934 16.53860294117651  C 19.848257211538396 16.76838235294124  19.951923076923208 17.0326286764706  19.951923076923208 17.331341911764586  Z " stroke-width="0" stroke-dasharray="0" stroke="rgba(255, 255, 255, 0)" fill="none" transform="matrix(1 0 0 1 229 19 )" class="stroke" mask="url(#Clip964)" />
  </g>
</svg>