<?xml version="1.0" encoding="utf-8"?>
<svg version="1.1" xmlns:xlink="http://www.w3.org/1999/xlink" width="21px" height="21px" xmlns="http://www.w3.org/2000/svg">
  <defs>
    <pattern id="BGPattern" patternUnits="userSpaceOnUse" alignment="0 0" imageRepeat="None" />
    <mask fill="white" id="Clip966">
      <path d="M 21 6.078947368421055  C 21 2.674736842105263  18.459000000000003 0  15.225 0  C 13.39799999999999 0  11.644499999999994 0.8952631578947354  10.5 2.3099999999999987  C 9.355500000000006 0.8952631578947354  7.601999999999999 0  5.775 0  C 2.540999999999997 0  0 2.674736842105263  0 6.078947368421055  C 0 10.256842105263154  3.5699999999999963 13.661052631578938  8.977499999999992 18.83368421052632  L 10.5 20.28157894736842  L 12.022500000000008 18.822631578947373  C 17.430000000000003 13.661052631578938  21 10.256842105263154  21 6.078947368421055  Z " fill-rule="evenodd" />
    </mask>
  </defs>
  <g transform="matrix(1 0 0 1 -52 -1771 )">
    <path d="M 21 6.078947368421055  C 21 2.674736842105263  18.459000000000003 0  15.225 0  C 13.39799999999999 0  11.644499999999994 0.8952631578947354  10.5 2.3099999999999987  C 9.355500000000006 0.8952631578947354  7.601999999999999 0  5.775 0  C 2.540999999999997 0  0 2.674736842105263  0 6.078947368421055  C 0 10.256842105263154  3.5699999999999963 13.661052631578938  8.977499999999992 18.83368421052632  L 10.5 20.28157894736842  L 12.022500000000008 18.822631578947373  C 17.430000000000003 13.661052631578938  21 10.256842105263154  21 6.078947368421055  Z " fill-rule="nonzero" fill="rgba(255, 255, 255, 1)" stroke="none" transform="matrix(1 0 0 1 52 1771 )" class="fill" />
    <path d="M 21 6.078947368421055  C 21 2.674736842105263  18.459000000000003 0  15.225 0  C 13.39799999999999 0  11.644499999999994 0.8952631578947354  10.5 2.3099999999999987  C 9.355500000000006 0.8952631578947354  7.601999999999999 0  5.775 0  C 2.540999999999997 0  0 2.674736842105263  0 6.078947368421055  C 0 10.256842105263154  3.5699999999999963 13.661052631578938  8.977499999999992 18.83368421052632  L 10.5 20.28157894736842  L 12.022500000000008 18.822631578947373  C 17.430000000000003 13.661052631578938  21 10.256842105263154  21 6.078947368421055  Z " stroke-width="2" stroke-dasharray="0" stroke="rgba(51, 51, 51, 1)" fill="none" transform="matrix(1 0 0 1 52 1771 )" class="stroke" mask="url(#Clip966)" />
  </g>
</svg>