<?xml version="1.0" encoding="utf-8"?>
<svg version="1.1" xmlns:xlink="http://www.w3.org/1999/xlink" width="8px" height="20px" xmlns="http://www.w3.org/2000/svg">
  <defs>
    <pattern id="BGPattern" patternUnits="userSpaceOnUse" alignment="0 0" imageRepeat="None" />
    <mask fill="white" id="Clip967">
      <path d="M 7.762500000000021 3.8364955357142776  C 7.920833333333373 4.013206845238074  8 4.222470238095241  8 4.464285714285722  C 8 4.706101190476204  7.920833333333373 4.915364583333314  7.762500000000021 5.092075892857167  C 7.604166666666667 5.268787202380963  7.416666666666667 5.357142857142833  7.200000000000021 5.357142857142833  L 5.59999999999996 5.357142857142833  L 5.59999999999996 19.642857142857167  L 2.4000000000000403 19.642857142857167  L 2.4000000000000403 5.357142857142833  L 0.7999999999999798 5.357142857142833  C 0.5833333333333334 5.357142857142833  0.3958333333333333 5.268787202380963  0.23749999999997978 5.092075892857167  C 0.07916666666667677 4.915364583333314  0 4.706101190476204  0 4.464285714285722  C 0 4.222470238095241  0.07916666666667677 4.013206845238074  0.23749999999997978 3.8364955357142776  L 3.4375 0.2650669642857224  C 3.5958333333333536 0.08835565476192642  3.7833333333333536 0  4 0  C 4.216666666666646 0  4.404166666666646 0.08835565476192642  4.5625 0.2650669642857224  L 7.762500000000021 3.8364955357142776  Z " fill-rule="evenodd" />
    </mask>
  </defs>
  <g transform="matrix(1 0 0 1 -261 -1766 )">
    <path d="M 7.762500000000021 3.8364955357142776  C 7.920833333333373 4.013206845238074  8 4.222470238095241  8 4.464285714285722  C 8 4.706101190476204  7.920833333333373 4.915364583333314  7.762500000000021 5.092075892857167  C 7.604166666666667 5.268787202380963  7.416666666666667 5.357142857142833  7.200000000000021 5.357142857142833  L 5.59999999999996 5.357142857142833  L 5.59999999999996 19.642857142857167  L 2.4000000000000403 19.642857142857167  L 2.4000000000000403 5.357142857142833  L 0.7999999999999798 5.357142857142833  C 0.5833333333333334 5.357142857142833  0.3958333333333333 5.268787202380963  0.23749999999997978 5.092075892857167  C 0.07916666666667677 4.915364583333314  0 4.706101190476204  0 4.464285714285722  C 0 4.222470238095241  0.07916666666667677 4.013206845238074  0.23749999999997978 3.8364955357142776  L 3.4375 0.2650669642857224  C 3.5958333333333536 0.08835565476192642  3.7833333333333536 0  4 0  C 4.216666666666646 0  4.404166666666646 0.08835565476192642  4.5625 0.2650669642857224  L 7.762500000000021 3.8364955357142776  Z " fill-rule="nonzero" fill="rgba(127, 127, 127, 1)" stroke="none" transform="matrix(1 0 0 1 261 1766 )" class="fill" />
    <path d="M 7.762500000000021 3.8364955357142776  C 7.920833333333373 4.013206845238074  8 4.222470238095241  8 4.464285714285722  C 8 4.706101190476204  7.920833333333373 4.915364583333314  7.762500000000021 5.092075892857167  C 7.604166666666667 5.268787202380963  7.416666666666667 5.357142857142833  7.200000000000021 5.357142857142833  L 5.59999999999996 5.357142857142833  L 5.59999999999996 19.642857142857167  L 2.4000000000000403 19.642857142857167  L 2.4000000000000403 5.357142857142833  L 0.7999999999999798 5.357142857142833  C 0.5833333333333334 5.357142857142833  0.3958333333333333 5.268787202380963  0.23749999999997978 5.092075892857167  C 0.07916666666667677 4.915364583333314  0 4.706101190476204  0 4.464285714285722  C 0 4.222470238095241  0.07916666666667677 4.013206845238074  0.23749999999997978 3.8364955357142776  L 3.4375 0.2650669642857224  C 3.5958333333333536 0.08835565476192642  3.7833333333333536 0  4 0  C 4.216666666666646 0  4.404166666666646 0.08835565476192642  4.5625 0.2650669642857224  L 7.762500000000021 3.8364955357142776  Z " stroke-width="0" stroke-dasharray="0" stroke="rgba(255, 255, 255, 1)" fill="none" transform="matrix(1 0 0 1 261 1766 )" class="stroke" mask="url(#Clip967)" />
  </g>
</svg>