<?xml version="1.0" encoding="utf-8"?>
<svg version="1.1" xmlns:xlink="http://www.w3.org/1999/xlink" width="25px" height="20px" xmlns="http://www.w3.org/2000/svg">
  <defs>
    <pattern id="BGPattern" patternUnits="userSpaceOnUse" alignment="0 0" imageRepeat="None" />
    <mask fill="white" id="Clip968">
      <path d="M 6.77490234375 5.569544364508394  C 6.978352864583334 5.3737010391686635  7.080078125 5.1119104716227  7.080078125 4.784172661870503  C 7.080078125 4.456434852118303  6.978352864583334 4.192645883293364  6.77490234375 3.992805755395683  C 6.571451822916667 3.7929656274980017  6.302897135416667 3.69304556354916  5.96923828125 3.69304556354916  C 5.619303385416667 3.69304556354916  5.31005859375 3.7949640287769792  5.04150390625 3.9988009592326135  C 4.77294921875 4.2026378896882495  4.638671875 4.464428457234211  4.638671875 4.784172661870503  C 4.638671875 5.095923261390887  4.77294921875 5.353717026378897  5.04150390625 5.557553956834534  C 5.31005859375 5.761390887290167  5.619303385416667 5.863309352517985  5.96923828125 5.863309352517985  C 6.302897135416667 5.863309352517985  6.571451822916667 5.7653876898481204  6.77490234375 5.569544364508394  Z M 15.838623046875 11.474820143884891  C 16.046142578125 11.29896083133493  16.14990234375 11.095123900879296  16.14990234375 10.863309352517984  C 16.14990234375 10.63948840927258  16.046142578125 10.4396482813749  15.838623046875 10.263788968824938  C 15.631103515625 10.087929656274978  15.364583333333334 10  15.0390625 10  C 14.8193359375 10  14.617919921875 10.089928057553958  14.434814453125 10.269784172661872  C 14.251708984375 10.449640287769784  14.16015625 10.64748201438849  14.16015625 10.863309352517984  C 14.16015625 11.08713029576339  14.251708984375 11.288968824940046  14.434814453125 11.468824940047961  C 14.617919921875 11.648681055155876  14.8193359375 11.738609112709833  15.0390625 11.738609112709833  C 15.364583333333334 11.738609112709833  15.631103515625 11.650679456434851  15.838623046875 11.474820143884891  Z M 12.969970703125 5.569544364508394  C 13.169352213541668 5.3737010391686635  13.26904296875 5.1119104716227  13.26904296875 4.784172661870503  C 13.26904296875 4.456434852118303  13.169352213541668 4.192645883293364  12.969970703125 3.992805755395683  C 12.770589192708334 3.7929656274980017  12.504069010416668 3.69304556354916  12.17041015625 3.69304556354916  C 11.820475260416668 3.69304556354916  11.511230468750002 3.7949640287769792  11.24267578125 3.9988009592326135  C 10.974121093750002 4.2026378896882495  10.839843750000002 4.464428457234211  10.83984375 4.784172661870503  C 10.839843750000002 5.095923261390887  10.974121093750002 5.353717026378897  11.24267578125 5.557553956834534  C 11.511230468750002 5.761390887290167  11.820475260416668 5.863309352517985  12.17041015625 5.863309352517985  C 12.504069010416668 5.863309352517985  12.770589192708334 5.7653876898481204  12.969970703125 5.569544364508394  Z M 20.703125 11.474820143884891  C 20.914713541666668 11.29896083133493  21.020507812500004 11.095123900879296  21.0205078125 10.863309352517984  C 21.020507812500004 10.63948840927258  20.914713541666668 10.4396482813749  20.703125 10.263788968824938  C 20.491536458333336 10.087929656274978  20.22705078125 10  19.90966796875 10  C 19.68994140625 10  19.488525390625 10.089928057553958  19.305419921875 10.269784172661872  C 19.122314453125 10.449640287769784  19.03076171875 10.64748201438849  19.03076171875 10.863309352517984  C 19.03076171875 11.08713029576339  19.122314453125 11.288968824940046  19.305419921875 11.468824940047961  C 19.488525390625 11.648681055155876  19.68994140625 11.738609112709833  19.90966796875 11.738609112709833  C 20.22705078125 11.738609112709833  20.491536458333336 11.650679456434851  20.703125 11.474820143884891  Z M 16.107177734375 2.9796163069544357  C 16.965738932291668 3.9108713029576325  17.521158854166668 4.952038369304557  17.7734375 6.103117505995204  C 17.521158854166668 6.071143085531574  17.236328125 6.055155875299761  16.9189453125 6.055155875299761  C 15.543619791666668 6.055155875299761  14.278157552083334 6.362909672262189  13.12255859375 6.978417266187051  C 11.966959635416668 7.593924860111909  11.057535807291668 8.427258193445244  10.394287109375 9.478417266187051  C 9.731038411458334 10.529576338928857  9.3994140625 11.678657074340526  9.3994140625 12.925659472422062  C 9.3994140625 13.549160671462829  9.493001302083334 14.156674660271783  9.68017578125 14.748201438848923  C 9.395345052083334 14.772182254196643  9.11865234375 14.784172661870505  8.85009765625 14.784172661870505  C 8.638509114583334 14.784172661870505  8.43505859375 14.778177458033571  8.23974609375 14.766187050359711  C 8.04443359375 14.754196642685852  7.820638020833334 14.728217426059151  7.568359375 14.688249400479616  C 7.316080729166667 14.64828137490008  7.135009765625 14.620303756994403  7.025146484375 14.60431654676259  C 6.915283203125 14.588329336530773  6.693522135416667 14.546362909672261  6.35986328125 14.478417266187051  C 6.026204427083334 14.410471622701838  5.822753906250001 14.368505195843325  5.74951171875 14.35251798561151  L 2.6611328125 15.875299760191846  L 3.5400390625 13.261390887290167  C 1.1800130208333333 11.638689048760991  0 9.680255795363708  0 7.386091127098322  C 0 6.0351718625099915  0.396728515625 4.792166266986408  1.190185546875 3.6570743405275774  C 1.9836425781250004 2.521982414068744  3.0578613281250004 1.6286970423661051  4.412841796875 0.9772182254196649  C 5.767822265625001 0.32573940847322014  7.246907552083334 0  8.85009765625 0  C 10.282389322916668 0  11.635335286458334 0.26378896882494063  12.908935546875 0.7913669064748197  C 14.182535807291668 1.318944844124701  15.248616536458334 2.048361310951239  16.107177734375 2.9796163069544357  Z M 23.956298828125 9.670263788968825  C 24.652099609375 10.641486810551559  25 11.694644284572341  25 12.829736211031175  C 25 13.764988009592326  24.721272786458336 14.658273381294965  24.163818359375 15.509592326139089  C 23.606363932291668 16.360911270983213  22.851562500000004 17.13429256594724  21.8994140625 17.829736211031175  L 22.57080078125 20  L 20.1416015625 18.69304556354916  C 18.9208984375 18.98880895283773  18.033854166666668 19.136690647482016  17.48046875 19.136690647482016  C 16.105143229166668 19.136690647482016  14.839680989583334 18.854916067146284  13.68408203125 18.29136690647482  C 12.528483072916668 17.727817745803357  11.619059244791668 16.962430055955235  10.955810546875 15.995203836930456  C 10.292561848958334 15.027977617905675  9.960937500000002 13.972821742605914  9.9609375 12.829736211031175  C 9.960937500000002 11.686650679456434  10.292561848958334 10.631494804156674  10.955810546875 9.664268585131895  C 11.619059244791668 8.697042366107112  12.528483072916668 7.931654676258992  13.68408203125 7.368105515587531  C 14.839680989583334 6.804556354916067  16.105143229166668 6.522781774580335  17.48046875 6.522781774580335  C 18.790690104166668 6.522781774580335  20.023600260416668 6.804556354916067  21.17919921875 7.368105515587531  C 22.334798177083336 7.931654676258992  23.260498046875 8.69904076738609  23.956298828125 9.670263788968825  Z " fill-rule="evenodd" />
    </mask>
  </defs>
  <g transform="matrix(1 0 0 1 -110 -346 )">
    <path d="M 6.77490234375 5.569544364508394  C 6.978352864583334 5.3737010391686635  7.080078125 5.1119104716227  7.080078125 4.784172661870503  C 7.080078125 4.456434852118303  6.978352864583334 4.192645883293364  6.77490234375 3.992805755395683  C 6.571451822916667 3.7929656274980017  6.302897135416667 3.69304556354916  5.96923828125 3.69304556354916  C 5.619303385416667 3.69304556354916  5.31005859375 3.7949640287769792  5.04150390625 3.9988009592326135  C 4.77294921875 4.2026378896882495  4.638671875 4.464428457234211  4.638671875 4.784172661870503  C 4.638671875 5.095923261390887  4.77294921875 5.353717026378897  5.04150390625 5.557553956834534  C 5.31005859375 5.761390887290167  5.619303385416667 5.863309352517985  5.96923828125 5.863309352517985  C 6.302897135416667 5.863309352517985  6.571451822916667 5.7653876898481204  6.77490234375 5.569544364508394  Z M 15.838623046875 11.474820143884891  C 16.046142578125 11.29896083133493  16.14990234375 11.095123900879296  16.14990234375 10.863309352517984  C 16.14990234375 10.63948840927258  16.046142578125 10.4396482813749  15.838623046875 10.263788968824938  C 15.631103515625 10.087929656274978  15.364583333333334 10  15.0390625 10  C 14.8193359375 10  14.617919921875 10.089928057553958  14.434814453125 10.269784172661872  C 14.251708984375 10.449640287769784  14.16015625 10.64748201438849  14.16015625 10.863309352517984  C 14.16015625 11.08713029576339  14.251708984375 11.288968824940046  14.434814453125 11.468824940047961  C 14.617919921875 11.648681055155876  14.8193359375 11.738609112709833  15.0390625 11.738609112709833  C 15.364583333333334 11.738609112709833  15.631103515625 11.650679456434851  15.838623046875 11.474820143884891  Z M 12.969970703125 5.569544364508394  C 13.169352213541668 5.3737010391686635  13.26904296875 5.1119104716227  13.26904296875 4.784172661870503  C 13.26904296875 4.456434852118303  13.169352213541668 4.192645883293364  12.969970703125 3.992805755395683  C 12.770589192708334 3.7929656274980017  12.504069010416668 3.69304556354916  12.17041015625 3.69304556354916  C 11.820475260416668 3.69304556354916  11.511230468750002 3.7949640287769792  11.24267578125 3.9988009592326135  C 10.974121093750002 4.2026378896882495  10.839843750000002 4.464428457234211  10.83984375 4.784172661870503  C 10.839843750000002 5.095923261390887  10.974121093750002 5.353717026378897  11.24267578125 5.557553956834534  C 11.511230468750002 5.761390887290167  11.820475260416668 5.863309352517985  12.17041015625 5.863309352517985  C 12.504069010416668 5.863309352517985  12.770589192708334 5.7653876898481204  12.969970703125 5.569544364508394  Z M 20.703125 11.474820143884891  C 20.914713541666668 11.29896083133493  21.020507812500004 11.095123900879296  21.0205078125 10.863309352517984  C 21.020507812500004 10.63948840927258  20.914713541666668 10.4396482813749  20.703125 10.263788968824938  C 20.491536458333336 10.087929656274978  20.22705078125 10  19.90966796875 10  C 19.68994140625 10  19.488525390625 10.089928057553958  19.305419921875 10.269784172661872  C 19.122314453125 10.449640287769784  19.03076171875 10.64748201438849  19.03076171875 10.863309352517984  C 19.03076171875 11.08713029576339  19.122314453125 11.288968824940046  19.305419921875 11.468824940047961  C 19.488525390625 11.648681055155876  19.68994140625 11.738609112709833  19.90966796875 11.738609112709833  C 20.22705078125 11.738609112709833  20.491536458333336 11.650679456434851  20.703125 11.474820143884891  Z M 16.107177734375 2.9796163069544357  C 16.965738932291668 3.9108713029576325  17.521158854166668 4.952038369304557  17.7734375 6.103117505995204  C 17.521158854166668 6.071143085531574  17.236328125 6.055155875299761  16.9189453125 6.055155875299761  C 15.543619791666668 6.055155875299761  14.278157552083334 6.362909672262189  13.12255859375 6.978417266187051  C 11.966959635416668 7.593924860111909  11.057535807291668 8.427258193445244  10.394287109375 9.478417266187051  C 9.731038411458334 10.529576338928857  9.3994140625 11.678657074340526  9.3994140625 12.925659472422062  C 9.3994140625 13.549160671462829  9.493001302083334 14.156674660271783  9.68017578125 14.748201438848923  C 9.395345052083334 14.772182254196643  9.11865234375 14.784172661870505  8.85009765625 14.784172661870505  C 8.638509114583334 14.784172661870505  8.43505859375 14.778177458033571  8.23974609375 14.766187050359711  C 8.04443359375 14.754196642685852  7.820638020833334 14.728217426059151  7.568359375 14.688249400479616  C 7.316080729166667 14.64828137490008  7.135009765625 14.620303756994403  7.025146484375 14.60431654676259  C 6.915283203125 14.588329336530773  6.693522135416667 14.546362909672261  6.35986328125 14.478417266187051  C 6.026204427083334 14.410471622701838  5.822753906250001 14.368505195843325  5.74951171875 14.35251798561151  L 2.6611328125 15.875299760191846  L 3.5400390625 13.261390887290167  C 1.1800130208333333 11.638689048760991  0 9.680255795363708  0 7.386091127098322  C 0 6.0351718625099915  0.396728515625 4.792166266986408  1.190185546875 3.6570743405275774  C 1.9836425781250004 2.521982414068744  3.0578613281250004 1.6286970423661051  4.412841796875 0.9772182254196649  C 5.767822265625001 0.32573940847322014  7.246907552083334 0  8.85009765625 0  C 10.282389322916668 0  11.635335286458334 0.26378896882494063  12.908935546875 0.7913669064748197  C 14.182535807291668 1.318944844124701  15.248616536458334 2.048361310951239  16.107177734375 2.9796163069544357  Z M 23.956298828125 9.670263788968825  C 24.652099609375 10.641486810551559  25 11.694644284572341  25 12.829736211031175  C 25 13.764988009592326  24.721272786458336 14.658273381294965  24.163818359375 15.509592326139089  C 23.606363932291668 16.360911270983213  22.851562500000004 17.13429256594724  21.8994140625 17.829736211031175  L 22.57080078125 20  L 20.1416015625 18.69304556354916  C 18.9208984375 18.98880895283773  18.033854166666668 19.136690647482016  17.48046875 19.136690647482016  C 16.105143229166668 19.136690647482016  14.839680989583334 18.854916067146284  13.68408203125 18.29136690647482  C 12.528483072916668 17.727817745803357  11.619059244791668 16.962430055955235  10.955810546875 15.995203836930456  C 10.292561848958334 15.027977617905675  9.960937500000002 13.972821742605914  9.9609375 12.829736211031175  C 9.960937500000002 11.686650679456434  10.292561848958334 10.631494804156674  10.955810546875 9.664268585131895  C 11.619059244791668 8.697042366107112  12.528483072916668 7.931654676258992  13.68408203125 7.368105515587531  C 14.839680989583334 6.804556354916067  16.105143229166668 6.522781774580335  17.48046875 6.522781774580335  C 18.790690104166668 6.522781774580335  20.023600260416668 6.804556354916067  21.17919921875 7.368105515587531  C 22.334798177083336 7.931654676258992  23.260498046875 8.69904076738609  23.956298828125 9.670263788968825  Z " fill-rule="nonzero" fill="rgba(51, 51, 51, 1)" stroke="none" transform="matrix(1 0 0 1 110 346 )" class="fill" />
    <path d="M 6.77490234375 5.569544364508394  C 6.978352864583334 5.3737010391686635  7.080078125 5.1119104716227  7.080078125 4.784172661870503  C 7.080078125 4.456434852118303  6.978352864583334 4.192645883293364  6.77490234375 3.992805755395683  C 6.571451822916667 3.7929656274980017  6.302897135416667 3.69304556354916  5.96923828125 3.69304556354916  C 5.619303385416667 3.69304556354916  5.31005859375 3.7949640287769792  5.04150390625 3.9988009592326135  C 4.77294921875 4.2026378896882495  4.638671875 4.464428457234211  4.638671875 4.784172661870503  C 4.638671875 5.095923261390887  4.77294921875 5.353717026378897  5.04150390625 5.557553956834534  C 5.31005859375 5.761390887290167  5.619303385416667 5.863309352517985  5.96923828125 5.863309352517985  C 6.302897135416667 5.863309352517985  6.571451822916667 5.7653876898481204  6.77490234375 5.569544364508394  Z " stroke-width="0" stroke-dasharray="0" stroke="rgba(255, 255, 255, 0)" fill="none" transform="matrix(1 0 0 1 110 346 )" class="stroke" mask="url(#Clip968)" />
    <path d="M 15.838623046875 11.474820143884891  C 16.046142578125 11.29896083133493  16.14990234375 11.095123900879296  16.14990234375 10.863309352517984  C 16.14990234375 10.63948840927258  16.046142578125 10.4396482813749  15.838623046875 10.263788968824938  C 15.631103515625 10.087929656274978  15.364583333333334 10  15.0390625 10  C 14.8193359375 10  14.617919921875 10.089928057553958  14.434814453125 10.269784172661872  C 14.251708984375 10.449640287769784  14.16015625 10.64748201438849  14.16015625 10.863309352517984  C 14.16015625 11.08713029576339  14.251708984375 11.288968824940046  14.434814453125 11.468824940047961  C 14.617919921875 11.648681055155876  14.8193359375 11.738609112709833  15.0390625 11.738609112709833  C 15.364583333333334 11.738609112709833  15.631103515625 11.650679456434851  15.838623046875 11.474820143884891  Z " stroke-width="0" stroke-dasharray="0" stroke="rgba(255, 255, 255, 0)" fill="none" transform="matrix(1 0 0 1 110 346 )" class="stroke" mask="url(#Clip968)" />
    <path d="M 12.969970703125 5.569544364508394  C 13.169352213541668 5.3737010391686635  13.26904296875 5.1119104716227  13.26904296875 4.784172661870503  C 13.26904296875 4.456434852118303  13.169352213541668 4.192645883293364  12.969970703125 3.992805755395683  C 12.770589192708334 3.7929656274980017  12.504069010416668 3.69304556354916  12.17041015625 3.69304556354916  C 11.820475260416668 3.69304556354916  11.511230468750002 3.7949640287769792  11.24267578125 3.9988009592326135  C 10.974121093750002 4.2026378896882495  10.839843750000002 4.464428457234211  10.83984375 4.784172661870503  C 10.839843750000002 5.095923261390887  10.974121093750002 5.353717026378897  11.24267578125 5.557553956834534  C 11.511230468750002 5.761390887290167  11.820475260416668 5.863309352517985  12.17041015625 5.863309352517985  C 12.504069010416668 5.863309352517985  12.770589192708334 5.7653876898481204  12.969970703125 5.569544364508394  Z " stroke-width="0" stroke-dasharray="0" stroke="rgba(255, 255, 255, 0)" fill="none" transform="matrix(1 0 0 1 110 346 )" class="stroke" mask="url(#Clip968)" />
    <path d="M 20.703125 11.474820143884891  C 20.914713541666668 11.29896083133493  21.020507812500004 11.095123900879296  21.0205078125 10.863309352517984  C 21.020507812500004 10.63948840927258  20.914713541666668 10.4396482813749  20.703125 10.263788968824938  C 20.491536458333336 10.087929656274978  20.22705078125 10  19.90966796875 10  C 19.68994140625 10  19.488525390625 10.089928057553958  19.305419921875 10.269784172661872  C 19.122314453125 10.449640287769784  19.03076171875 10.64748201438849  19.03076171875 10.863309352517984  C 19.03076171875 11.08713029576339  19.122314453125 11.288968824940046  19.305419921875 11.468824940047961  C 19.488525390625 11.648681055155876  19.68994140625 11.738609112709833  19.90966796875 11.738609112709833  C 20.22705078125 11.738609112709833  20.491536458333336 11.650679456434851  20.703125 11.474820143884891  Z " stroke-width="0" stroke-dasharray="0" stroke="rgba(255, 255, 255, 0)" fill="none" transform="matrix(1 0 0 1 110 346 )" class="stroke" mask="url(#Clip968)" />
    <path d="M 16.107177734375 2.9796163069544357  C 16.965738932291668 3.9108713029576325  17.521158854166668 4.952038369304557  17.7734375 6.103117505995204  C 17.521158854166668 6.071143085531574  17.236328125 6.055155875299761  16.9189453125 6.055155875299761  C 15.543619791666668 6.055155875299761  14.278157552083334 6.362909672262189  13.12255859375 6.978417266187051  C 11.966959635416668 7.593924860111909  11.057535807291668 8.427258193445244  10.394287109375 9.478417266187051  C 9.731038411458334 10.529576338928857  9.3994140625 11.678657074340526  9.3994140625 12.925659472422062  C 9.3994140625 13.549160671462829  9.493001302083334 14.156674660271783  9.68017578125 14.748201438848923  C 9.395345052083334 14.772182254196643  9.11865234375 14.784172661870505  8.85009765625 14.784172661870505  C 8.638509114583334 14.784172661870505  8.43505859375 14.778177458033571  8.23974609375 14.766187050359711  C 8.04443359375 14.754196642685852  7.820638020833334 14.728217426059151  7.568359375 14.688249400479616  C 7.316080729166667 14.64828137490008  7.135009765625 14.620303756994403  7.025146484375 14.60431654676259  C 6.915283203125 14.588329336530773  6.693522135416667 14.546362909672261  6.35986328125 14.478417266187051  C 6.026204427083334 14.410471622701838  5.822753906250001 14.368505195843325  5.74951171875 14.35251798561151  L 2.6611328125 15.875299760191846  L 3.5400390625 13.261390887290167  C 1.1800130208333333 11.638689048760991  0 9.680255795363708  0 7.386091127098322  C 0 6.0351718625099915  0.396728515625 4.792166266986408  1.190185546875 3.6570743405275774  C 1.9836425781250004 2.521982414068744  3.0578613281250004 1.6286970423661051  4.412841796875 0.9772182254196649  C 5.767822265625001 0.32573940847322014  7.246907552083334 0  8.85009765625 0  C 10.282389322916668 0  11.635335286458334 0.26378896882494063  12.908935546875 0.7913669064748197  C 14.182535807291668 1.318944844124701  15.248616536458334 2.048361310951239  16.107177734375 2.9796163069544357  Z " stroke-width="0" stroke-dasharray="0" stroke="rgba(255, 255, 255, 0)" fill="none" transform="matrix(1 0 0 1 110 346 )" class="stroke" mask="url(#Clip968)" />
    <path d="M 23.956298828125 9.670263788968825  C 24.652099609375 10.641486810551559  25 11.694644284572341  25 12.829736211031175  C 25 13.764988009592326  24.721272786458336 14.658273381294965  24.163818359375 15.509592326139089  C 23.606363932291668 16.360911270983213  22.851562500000004 17.13429256594724  21.8994140625 17.829736211031175  L 22.57080078125 20  L 20.1416015625 18.69304556354916  C 18.9208984375 18.98880895283773  18.033854166666668 19.136690647482016  17.48046875 19.136690647482016  C 16.105143229166668 19.136690647482016  14.839680989583334 18.854916067146284  13.68408203125 18.29136690647482  C 12.528483072916668 17.727817745803357  11.619059244791668 16.962430055955235  10.955810546875 15.995203836930456  C 10.292561848958334 15.027977617905675  9.960937500000002 13.972821742605914  9.9609375 12.829736211031175  C 9.960937500000002 11.686650679456434  10.292561848958334 10.631494804156674  10.955810546875 9.664268585131895  C 11.619059244791668 8.697042366107112  12.528483072916668 7.931654676258992  13.68408203125 7.368105515587531  C 14.839680989583334 6.804556354916067  16.105143229166668 6.522781774580335  17.48046875 6.522781774580335  C 18.790690104166668 6.522781774580335  20.023600260416668 6.804556354916067  21.17919921875 7.368105515587531  C 22.334798177083336 7.931654676258992  23.260498046875 8.69904076738609  23.956298828125 9.670263788968825  Z " stroke-width="0" stroke-dasharray="0" stroke="rgba(255, 255, 255, 0)" fill="none" transform="matrix(1 0 0 1 110 346 )" class="stroke" mask="url(#Clip968)" />
  </g>
</svg>