<?xml version="1.0" encoding="utf-8"?>
<svg version="1.1" xmlns:xlink="http://www.w3.org/1999/xlink" width="20px" height="20px" xmlns="http://www.w3.org/2000/svg">
  <defs>
    <pattern id="BGPattern" patternUnits="userSpaceOnUse" alignment="0 0" imageRepeat="None" />
    <mask fill="white" id="Clip969">
      <path d="M 0 14.196428571428573  C 0 12.150297619047619  0.9567198177676538 10.416666666666664  2.870159453302961 8.995535714285714  C 2.8094153378891424 8.854166666666664  2.7790432801822322 8.660714285714286  2.7790432801822322 8.415178571428573  C 2.7790432801822322 8.266369047619047  2.8208048595292334 8.08407738095238  2.9043280182232345 7.868303571428572  C 2.9878511769172365 7.652529761904761  3.0789673500379653 7.485119047619047  3.1776765375854215 7.366071428571428  C 3.170083523158694 7.202380952380951  3.1985573272589223 7.005208333333332  3.2630979498861046 6.774553571428572  C 3.3276385725132878 6.543898809523809  3.4130599848139713 6.383928571428572  3.519362186788155 6.294642857142858  C 3.519362186788155 5.260416666666665  3.870539104024298 4.1871279761904745  4.572892938496583 3.074776785714286  C 5.275246772968869 1.9624255952380953  6.100987091875475 1.183035714285714  7.050113895216401 0.7366071428571419  C 8.105542900531512 0.24553571428571397  9.335611237661352 0  10.740318906605923 0  C 11.750189825360668 0  12.760060744115416 0.20461309523809756  13.769931662870158 0.613839285714286  C 14.141989369779804 0.770089285714286  14.483675018982536 0.948660714285714  14.79498861047836 1.149553571428572  C 15.106302201974184 1.350446428571428  15.375854214123006 1.5587797619047605  15.603644646924831 1.774553571428572  C 15.831435079726653 1.9903273809523792  16.040242976461656 2.243303571428572  16.230068337129843 2.533482142857142  C 16.419893697798027 2.823660714285714  16.579347000759302 3.0989583333333326  16.708428246013668 3.359375  C 16.837509491268033 3.619791666666665  16.960895975702353 3.934151785714286  17.07858769931663 4.302455357142858  C 17.196279422930903 4.670758928571428  17.29309035687168 5.003720238095237  17.36902050113895 5.3013392857142865  C 17.444950645406227 5.598958333333332  17.52847380410023 5.963541666666665  17.619589977220958 6.3950892857142865  L 17.63097949886105 6.450892857142858  C 18.048595292331054 7.06845238095238  18.25740318906606 7.626488095238095  18.25740318906606 8.125  C 18.25740318906606 8.229166666666664  18.223234624145785 8.377976190476188  18.15489749430524 8.571428571428573  C 18.08656036446469 8.76488095238095  18.052391799544417 8.90625  18.052391799544417 8.995535714285714  C 18.052391799544417 9.00297619047619  18.058086560364465 9.015997023809524  18.069476082004556 9.034598214285714  C 18.080865603644646 9.053199404761905  18.09415337889142 9.071800595238095  18.109339407744876 9.090401785714286  C 18.124525436598333 9.109002976190476  18.132118451025057 9.12202380952381  18.132118451025057 9.129464285714286  C 18.71678056188307 9.977678571428573  19.174259681093396 10.775669642857144  19.504555808656036 11.5234375  C 19.834851936218676 12.271205357142856  20 13.046875  20 13.850446428571427  C 20 14.170386904761902  19.925968109339408 14.542410714285714  19.777904328018224 14.966517857142856  C 19.62984054669704 15.390625  19.419134396355354 15.602678571428573  19.145785876993166 15.602678571428573  C 19.07744874715262 15.602678571428573  19.003416856492027 15.574776785714286  18.92369020501139 15.518973214285714  C 18.843963553530752 15.463169642857144  18.771829916476843 15.398065476190476  18.70728929384966 15.323660714285714  C 18.642748671222478 15.24925595238095  18.570615034168565 15.152529761904763  18.490888382687928 15.033482142857144  C 18.411161731207287 14.914434523809524  18.35041761579347 14.815848214285714  18.308656036446468 14.737723214285714  C 18.26689445709947 14.659598214285714  18.21564160971906 14.562872023809524  18.15489749430524 14.447544642857144  C 18.09415337889142 14.332217261904763  18.05998481397115 14.267113095238093  18.052391799544417 14.252232142857144  C 18.044798785117692 14.244791666666664  18.0334092634776 14.241071428571427  18.018223234624145 14.241071428571427  L 17.96127562642369 14.285714285714286  C 17.51328777524677 15.431547619047619  17.01214882308276 16.261160714285715  16.457858769931665 16.774553571428573  C 16.60971905846621 16.923363095238095  16.84320425208808 17.066592261904763  17.158314350797266 17.204241071428573  C 17.47342444950646 17.34188988095238  17.735383447228553 17.496279761904763  17.944191343963553 17.667410714285715  C 18.15299924069856 17.838541666666664  18.28777524677297 18.080357142857142  18.34851936218679 18.392857142857142  C 18.333333333333336 18.422619047619047  18.31814730447988 18.482142857142858  18.302961275626423 18.571428571428573  C 18.287775246772974 18.660714285714285  18.261199696279423 18.727678571428573  18.223234624145785 18.772321428571427  C 17.737281700835233 19.49404761904762  16.590736522399396 19.854910714285715  14.783599088838269 19.854910714285715  C 14.381169324221716 19.854910714285715  13.961655277145029 19.821428571428573  13.525056947608201 19.754464285714285  C 13.088458618071375 19.6875  12.716400911161731 19.61309523809524  12.408883826879272 19.53125  C 12.101366742596811 19.449404761904763  11.704631738800304 19.33779761904762  11.21867881548975 19.196428571428573  C 11.104783599088838 19.15922619047619  11.017463933181473 19.133184523809522  10.956719817767652 19.118303571428573  C 10.850417615793472 19.088541666666664  10.67577828397874 19.071800595238095  10.432801822323462 19.068080357142858  C 10.189825360668186 19.06436011904762  10.037965072133638 19.058779761904763  9.977220956719817 19.051339285714285  C 9.665907365223994 19.386160714285715  9.181852695520123 19.62797619047619  8.525056947608201 19.776785714285715  C 7.86826119969628 19.925595238095237  7.2285497342444955 20  6.605922551252847 20  C 6.340167046317388 20  6.078208048595293 19.994419642857142  5.82004555808656 19.983258928571427  C 5.561883067577829 19.972098214285715  5.208807896735004 19.938616071428573  4.760820045558087 19.8828125  C 4.312832194381169 19.827008928571427  3.929384965831435 19.750744047619047  3.6104783599088837 19.654017857142858  C 3.2915717539863327 19.557291666666664  3.008731966590737 19.408482142857142  2.7619589977220955 19.207589285714285  C 2.515186028853455 19.006696428571427  2.391799544419135 18.76860119047619  2.3917995444191344 18.493303571428573  C 2.391799544419135 18.195684523809522  2.429764616552772 17.974330357142858  2.5056947608200457 17.829241071428573  C 2.5816249050873195 17.684151785714285  2.737281700835232 17.503720238095237  2.972665148063781 17.287946428571427  C 3.0561883067577833 17.273065476190478  3.2099468488990137 17.22470238095238  3.4339407744874717 17.142857142857146  C 3.6579347000759306 17.061011904761905  3.845861807137434 17.016369047619047  3.997722095671982 17.008928571428573  C 4.028094153378891 17.008928571428573  4.081245254365983 17.001488095238095  4.157175398633257 16.986607142857146  C 4.172361427486713 16.97172619047619  4.17995444191344 16.956845238095237  4.17995444191344 16.941964285714285  L 4.157175398633257 16.908482142857146  C 3.792710706150342 16.826636904761905  3.3826879271070616 16.434151785714285  2.927107061503417 15.731026785714286  C 2.4715261958997723 15.027901785714286  2.1943811693242217 14.445684523809524  2.0956719817767655 13.984375  L 2.0387243735763096 13.950892857142856  C 2.0083523158694003 13.950892857142856  1.962794229309036 14.025297619047619  1.9020501138952164 14.174107142857144  C 1.765375854214123 14.479166666666664  1.558466211085801 14.756324404761902  1.2813211845102508 15.005580357142856  C 1.0041761579347002 15.25483630952381  0.709946848899013 15.394345238095237  0.3986332574031891 15.424107142857144  L 0.387243735763098 15.424107142857144  C 0.35687167805618825 15.424107142857144  0.334092634776006 15.407366071428573  0.31890660592255127 15.373883928571427  C 0.3037205770690965 15.340401785714286  0.2847380410022779 15.319940476190476  0.2619589977220957 15.3125  C 0.08731966590736523 14.910714285714286  0 14.538690476190476  0 14.196428571428573  Z " fill-rule="evenodd" />
    </mask>
  </defs>
  <g transform="matrix(1 0 0 1 -110 -480 )">
    <path d="M 0 14.196428571428573  C 0 12.150297619047619  0.9567198177676538 10.416666666666664  2.870159453302961 8.995535714285714  C 2.8094153378891424 8.854166666666664  2.7790432801822322 8.660714285714286  2.7790432801822322 8.415178571428573  C 2.7790432801822322 8.266369047619047  2.8208048595292334 8.08407738095238  2.9043280182232345 7.868303571428572  C 2.9878511769172365 7.652529761904761  3.0789673500379653 7.485119047619047  3.1776765375854215 7.366071428571428  C 3.170083523158694 7.202380952380951  3.1985573272589223 7.005208333333332  3.2630979498861046 6.774553571428572  C 3.3276385725132878 6.543898809523809  3.4130599848139713 6.383928571428572  3.519362186788155 6.294642857142858  C 3.519362186788155 5.260416666666665  3.870539104024298 4.1871279761904745  4.572892938496583 3.074776785714286  C 5.275246772968869 1.9624255952380953  6.100987091875475 1.183035714285714  7.050113895216401 0.7366071428571419  C 8.105542900531512 0.24553571428571397  9.335611237661352 0  10.740318906605923 0  C 11.750189825360668 0  12.760060744115416 0.20461309523809756  13.769931662870158 0.613839285714286  C 14.141989369779804 0.770089285714286  14.483675018982536 0.948660714285714  14.79498861047836 1.149553571428572  C 15.106302201974184 1.350446428571428  15.375854214123006 1.5587797619047605  15.603644646924831 1.774553571428572  C 15.831435079726653 1.9903273809523792  16.040242976461656 2.243303571428572  16.230068337129843 2.533482142857142  C 16.419893697798027 2.823660714285714  16.579347000759302 3.0989583333333326  16.708428246013668 3.359375  C 16.837509491268033 3.619791666666665  16.960895975702353 3.934151785714286  17.07858769931663 4.302455357142858  C 17.196279422930903 4.670758928571428  17.29309035687168 5.003720238095237  17.36902050113895 5.3013392857142865  C 17.444950645406227 5.598958333333332  17.52847380410023 5.963541666666665  17.619589977220958 6.3950892857142865  L 17.63097949886105 6.450892857142858  C 18.048595292331054 7.06845238095238  18.25740318906606 7.626488095238095  18.25740318906606 8.125  C 18.25740318906606 8.229166666666664  18.223234624145785 8.377976190476188  18.15489749430524 8.571428571428573  C 18.08656036446469 8.76488095238095  18.052391799544417 8.90625  18.052391799544417 8.995535714285714  C 18.052391799544417 9.00297619047619  18.058086560364465 9.015997023809524  18.069476082004556 9.034598214285714  C 18.080865603644646 9.053199404761905  18.09415337889142 9.071800595238095  18.109339407744876 9.090401785714286  C 18.124525436598333 9.109002976190476  18.132118451025057 9.12202380952381  18.132118451025057 9.129464285714286  C 18.71678056188307 9.977678571428573  19.174259681093396 10.775669642857144  19.504555808656036 11.5234375  C 19.834851936218676 12.271205357142856  20 13.046875  20 13.850446428571427  C 20 14.170386904761902  19.925968109339408 14.542410714285714  19.777904328018224 14.966517857142856  C 19.62984054669704 15.390625  19.419134396355354 15.602678571428573  19.145785876993166 15.602678571428573  C 19.07744874715262 15.602678571428573  19.003416856492027 15.574776785714286  18.92369020501139 15.518973214285714  C 18.843963553530752 15.463169642857144  18.771829916476843 15.398065476190476  18.70728929384966 15.323660714285714  C 18.642748671222478 15.24925595238095  18.570615034168565 15.152529761904763  18.490888382687928 15.033482142857144  C 18.411161731207287 14.914434523809524  18.35041761579347 14.815848214285714  18.308656036446468 14.737723214285714  C 18.26689445709947 14.659598214285714  18.21564160971906 14.562872023809524  18.15489749430524 14.447544642857144  C 18.09415337889142 14.332217261904763  18.05998481397115 14.267113095238093  18.052391799544417 14.252232142857144  C 18.044798785117692 14.244791666666664  18.0334092634776 14.241071428571427  18.018223234624145 14.241071428571427  L 17.96127562642369 14.285714285714286  C 17.51328777524677 15.431547619047619  17.01214882308276 16.261160714285715  16.457858769931665 16.774553571428573  C 16.60971905846621 16.923363095238095  16.84320425208808 17.066592261904763  17.158314350797266 17.204241071428573  C 17.47342444950646 17.34188988095238  17.735383447228553 17.496279761904763  17.944191343963553 17.667410714285715  C 18.15299924069856 17.838541666666664  18.28777524677297 18.080357142857142  18.34851936218679 18.392857142857142  C 18.333333333333336 18.422619047619047  18.31814730447988 18.482142857142858  18.302961275626423 18.571428571428573  C 18.287775246772974 18.660714285714285  18.261199696279423 18.727678571428573  18.223234624145785 18.772321428571427  C 17.737281700835233 19.49404761904762  16.590736522399396 19.854910714285715  14.783599088838269 19.854910714285715  C 14.381169324221716 19.854910714285715  13.961655277145029 19.821428571428573  13.525056947608201 19.754464285714285  C 13.088458618071375 19.6875  12.716400911161731 19.61309523809524  12.408883826879272 19.53125  C 12.101366742596811 19.449404761904763  11.704631738800304 19.33779761904762  11.21867881548975 19.196428571428573  C 11.104783599088838 19.15922619047619  11.017463933181473 19.133184523809522  10.956719817767652 19.118303571428573  C 10.850417615793472 19.088541666666664  10.67577828397874 19.071800595238095  10.432801822323462 19.068080357142858  C 10.189825360668186 19.06436011904762  10.037965072133638 19.058779761904763  9.977220956719817 19.051339285714285  C 9.665907365223994 19.386160714285715  9.181852695520123 19.62797619047619  8.525056947608201 19.776785714285715  C 7.86826119969628 19.925595238095237  7.2285497342444955 20  6.605922551252847 20  C 6.340167046317388 20  6.078208048595293 19.994419642857142  5.82004555808656 19.983258928571427  C 5.561883067577829 19.972098214285715  5.208807896735004 19.938616071428573  4.760820045558087 19.8828125  C 4.312832194381169 19.827008928571427  3.929384965831435 19.750744047619047  3.6104783599088837 19.654017857142858  C 3.2915717539863327 19.557291666666664  3.008731966590737 19.408482142857142  2.7619589977220955 19.207589285714285  C 2.515186028853455 19.006696428571427  2.391799544419135 18.76860119047619  2.3917995444191344 18.493303571428573  C 2.391799544419135 18.195684523809522  2.429764616552772 17.974330357142858  2.5056947608200457 17.829241071428573  C 2.5816249050873195 17.684151785714285  2.737281700835232 17.503720238095237  2.972665148063781 17.287946428571427  C 3.0561883067577833 17.273065476190478  3.2099468488990137 17.22470238095238  3.4339407744874717 17.142857142857146  C 3.6579347000759306 17.061011904761905  3.845861807137434 17.016369047619047  3.997722095671982 17.008928571428573  C 4.028094153378891 17.008928571428573  4.081245254365983 17.001488095238095  4.157175398633257 16.986607142857146  C 4.172361427486713 16.97172619047619  4.17995444191344 16.956845238095237  4.17995444191344 16.941964285714285  L 4.157175398633257 16.908482142857146  C 3.792710706150342 16.826636904761905  3.3826879271070616 16.434151785714285  2.927107061503417 15.731026785714286  C 2.4715261958997723 15.027901785714286  2.1943811693242217 14.445684523809524  2.0956719817767655 13.984375  L 2.0387243735763096 13.950892857142856  C 2.0083523158694003 13.950892857142856  1.962794229309036 14.025297619047619  1.9020501138952164 14.174107142857144  C 1.765375854214123 14.479166666666664  1.558466211085801 14.756324404761902  1.2813211845102508 15.005580357142856  C 1.0041761579347002 15.25483630952381  0.709946848899013 15.394345238095237  0.3986332574031891 15.424107142857144  L 0.387243735763098 15.424107142857144  C 0.35687167805618825 15.424107142857144  0.334092634776006 15.407366071428573  0.31890660592255127 15.373883928571427  C 0.3037205770690965 15.340401785714286  0.2847380410022779 15.319940476190476  0.2619589977220957 15.3125  C 0.08731966590736523 14.910714285714286  0 14.538690476190476  0 14.196428571428573  Z " fill-rule="nonzero" fill="rgba(51, 51, 51, 1)" stroke="none" transform="matrix(1 0 0 1 110 480 )" class="fill" />
    <path d="M 0 14.196428571428573  C 0 12.150297619047619  0.9567198177676538 10.416666666666664  2.870159453302961 8.995535714285714  C 2.8094153378891424 8.854166666666664  2.7790432801822322 8.660714285714286  2.7790432801822322 8.415178571428573  C 2.7790432801822322 8.266369047619047  2.8208048595292334 8.08407738095238  2.9043280182232345 7.868303571428572  C 2.9878511769172365 7.652529761904761  3.0789673500379653 7.485119047619047  3.1776765375854215 7.366071428571428  C 3.170083523158694 7.202380952380951  3.1985573272589223 7.005208333333332  3.2630979498861046 6.774553571428572  C 3.3276385725132878 6.543898809523809  3.4130599848139713 6.383928571428572  3.519362186788155 6.294642857142858  C 3.519362186788155 5.260416666666665  3.870539104024298 4.1871279761904745  4.572892938496583 3.074776785714286  C 5.275246772968869 1.9624255952380953  6.100987091875475 1.183035714285714  7.050113895216401 0.7366071428571419  C 8.105542900531512 0.24553571428571397  9.335611237661352 0  10.740318906605923 0  C 11.750189825360668 0  12.760060744115416 0.20461309523809756  13.769931662870158 0.613839285714286  C 14.141989369779804 0.770089285714286  14.483675018982536 0.948660714285714  14.79498861047836 1.149553571428572  C 15.106302201974184 1.350446428571428  15.375854214123006 1.5587797619047605  15.603644646924831 1.774553571428572  C 15.831435079726653 1.9903273809523792  16.040242976461656 2.243303571428572  16.230068337129843 2.533482142857142  C 16.419893697798027 2.823660714285714  16.579347000759302 3.0989583333333326  16.708428246013668 3.359375  C 16.837509491268033 3.619791666666665  16.960895975702353 3.934151785714286  17.07858769931663 4.302455357142858  C 17.196279422930903 4.670758928571428  17.29309035687168 5.003720238095237  17.36902050113895 5.3013392857142865  C 17.444950645406227 5.598958333333332  17.52847380410023 5.963541666666665  17.619589977220958 6.3950892857142865  L 17.63097949886105 6.450892857142858  C 18.048595292331054 7.06845238095238  18.25740318906606 7.626488095238095  18.25740318906606 8.125  C 18.25740318906606 8.229166666666664  18.223234624145785 8.377976190476188  18.15489749430524 8.571428571428573  C 18.08656036446469 8.76488095238095  18.052391799544417 8.90625  18.052391799544417 8.995535714285714  C 18.052391799544417 9.00297619047619  18.058086560364465 9.015997023809524  18.069476082004556 9.034598214285714  C 18.080865603644646 9.053199404761905  18.09415337889142 9.071800595238095  18.109339407744876 9.090401785714286  C 18.124525436598333 9.109002976190476  18.132118451025057 9.12202380952381  18.132118451025057 9.129464285714286  C 18.71678056188307 9.977678571428573  19.174259681093396 10.775669642857144  19.504555808656036 11.5234375  C 19.834851936218676 12.271205357142856  20 13.046875  20 13.850446428571427  C 20 14.170386904761902  19.925968109339408 14.542410714285714  19.777904328018224 14.966517857142856  C 19.62984054669704 15.390625  19.419134396355354 15.602678571428573  19.145785876993166 15.602678571428573  C 19.07744874715262 15.602678571428573  19.003416856492027 15.574776785714286  18.92369020501139 15.518973214285714  C 18.843963553530752 15.463169642857144  18.771829916476843 15.398065476190476  18.70728929384966 15.323660714285714  C 18.642748671222478 15.24925595238095  18.570615034168565 15.152529761904763  18.490888382687928 15.033482142857144  C 18.411161731207287 14.914434523809524  18.35041761579347 14.815848214285714  18.308656036446468 14.737723214285714  C 18.26689445709947 14.659598214285714  18.21564160971906 14.562872023809524  18.15489749430524 14.447544642857144  C 18.09415337889142 14.332217261904763  18.05998481397115 14.267113095238093  18.052391799544417 14.252232142857144  C 18.044798785117692 14.244791666666664  18.0334092634776 14.241071428571427  18.018223234624145 14.241071428571427  L 17.96127562642369 14.285714285714286  C 17.51328777524677 15.431547619047619  17.01214882308276 16.261160714285715  16.457858769931665 16.774553571428573  C 16.60971905846621 16.923363095238095  16.84320425208808 17.066592261904763  17.158314350797266 17.204241071428573  C 17.47342444950646 17.34188988095238  17.735383447228553 17.496279761904763  17.944191343963553 17.667410714285715  C 18.15299924069856 17.838541666666664  18.28777524677297 18.080357142857142  18.34851936218679 18.392857142857142  C 18.333333333333336 18.422619047619047  18.31814730447988 18.482142857142858  18.302961275626423 18.571428571428573  C 18.287775246772974 18.660714285714285  18.261199696279423 18.727678571428573  18.223234624145785 18.772321428571427  C 17.737281700835233 19.49404761904762  16.590736522399396 19.854910714285715  14.783599088838269 19.854910714285715  C 14.381169324221716 19.854910714285715  13.961655277145029 19.821428571428573  13.525056947608201 19.754464285714285  C 13.088458618071375 19.6875  12.716400911161731 19.61309523809524  12.408883826879272 19.53125  C 12.101366742596811 19.449404761904763  11.704631738800304 19.33779761904762  11.21867881548975 19.196428571428573  C 11.104783599088838 19.15922619047619  11.017463933181473 19.133184523809522  10.956719817767652 19.118303571428573  C 10.850417615793472 19.088541666666664  10.67577828397874 19.071800595238095  10.432801822323462 19.068080357142858  C 10.189825360668186 19.06436011904762  10.037965072133638 19.058779761904763  9.977220956719817 19.051339285714285  C 9.665907365223994 19.386160714285715  9.181852695520123 19.62797619047619  8.525056947608201 19.776785714285715  C 7.86826119969628 19.925595238095237  7.2285497342444955 20  6.605922551252847 20  C 6.340167046317388 20  6.078208048595293 19.994419642857142  5.82004555808656 19.983258928571427  C 5.561883067577829 19.972098214285715  5.208807896735004 19.938616071428573  4.760820045558087 19.8828125  C 4.312832194381169 19.827008928571427  3.929384965831435 19.750744047619047  3.6104783599088837 19.654017857142858  C 3.2915717539863327 19.557291666666664  3.008731966590737 19.408482142857142  2.7619589977220955 19.207589285714285  C 2.515186028853455 19.006696428571427  2.391799544419135 18.76860119047619  2.3917995444191344 18.493303571428573  C 2.391799544419135 18.195684523809522  2.429764616552772 17.974330357142858  2.5056947608200457 17.829241071428573  C 2.5816249050873195 17.684151785714285  2.737281700835232 17.503720238095237  2.972665148063781 17.287946428571427  C 3.0561883067577833 17.273065476190478  3.2099468488990137 17.22470238095238  3.4339407744874717 17.142857142857146  C 3.6579347000759306 17.061011904761905  3.845861807137434 17.016369047619047  3.997722095671982 17.008928571428573  C 4.028094153378891 17.008928571428573  4.081245254365983 17.001488095238095  4.157175398633257 16.986607142857146  C 4.172361427486713 16.97172619047619  4.17995444191344 16.956845238095237  4.17995444191344 16.941964285714285  L 4.157175398633257 16.908482142857146  C 3.792710706150342 16.826636904761905  3.3826879271070616 16.434151785714285  2.927107061503417 15.731026785714286  C 2.4715261958997723 15.027901785714286  2.1943811693242217 14.445684523809524  2.0956719817767655 13.984375  L 2.0387243735763096 13.950892857142856  C 2.0083523158694003 13.950892857142856  1.962794229309036 14.025297619047619  1.9020501138952164 14.174107142857144  C 1.765375854214123 14.479166666666664  1.558466211085801 14.756324404761902  1.2813211845102508 15.005580357142856  C 1.0041761579347002 15.25483630952381  0.709946848899013 15.394345238095237  0.3986332574031891 15.424107142857144  L 0.387243735763098 15.424107142857144  C 0.35687167805618825 15.424107142857144  0.334092634776006 15.407366071428573  0.31890660592255127 15.373883928571427  C 0.3037205770690965 15.340401785714286  0.2847380410022779 15.319940476190476  0.2619589977220957 15.3125  C 0.08731966590736523 14.910714285714286  0 14.538690476190476  0 14.196428571428573  Z " stroke-width="0" stroke-dasharray="0" stroke="rgba(255, 255, 255, 0)" fill="none" transform="matrix(1 0 0 1 110 480 )" class="stroke" mask="url(#Clip969)" />
  </g>
</svg>