<?xml version="1.0" encoding="utf-8"?>
<svg version="1.1" xmlns:xlink="http://www.w3.org/1999/xlink" width="282px" height="58px" xmlns="http://www.w3.org/2000/svg">
  <defs>
    <linearGradient gradientUnits="userSpaceOnUse" x1="282" y1="33.93769470404969" x2="11.28000000000001" y2="29.19750778816199" id="LinearGradient948">
      <stop id="Stop949" stop-color="#f9b855" stop-opacity="0.9921568627450981" offset="0" />
      <stop id="Stop950" stop-color="#f59a23" offset="1" />
    </linearGradient>
    <pattern id="BGPattern" patternUnits="userSpaceOnUse" alignment="0 0" imageRepeat="None" />
    <mask fill="white" id="Clip951">
      <path d="M 29 58  C 12.759999999999998 58  0 45.24  0 29  C 0 12.759999999999998  12.759999999999998 0  29 0  L 253 0  C 269.24 0  282 12.759999999999998  282 29  C 282 45.24  269.24 58  253 58  L 29 58  Z " fill-rule="evenodd" />
    </mask>
  </defs>
  <g transform="matrix(1 0 0 1 -54 -773 )">
    <path d="M 29 58  C 12.759999999999998 58  0 45.24  0 29  C 0 12.759999999999998  12.759999999999998 0  29 0  L 253 0  C 269.24 0  282 12.759999999999998  282 29  C 282 45.24  269.24 58  253 58  L 29 58  Z " fill-rule="nonzero" fill="url(#LinearGradient948)" stroke="none" transform="matrix(1 0 0 1 54 773 )" class="fill" />
    <path d="M 29 58  C 12.759999999999998 58  0 45.24  0 29  C 0 12.759999999999998  12.759999999999998 0  29 0  L 253 0  C 269.24 0  282 12.759999999999998  282 29  C 282 45.24  269.24 58  253 58  L 29 58  Z " stroke-width="0" stroke-dasharray="0" stroke="rgba(121, 121, 121, 1)" fill="none" transform="matrix(1 0 0 1 54 773 )" class="stroke" mask="url(#Clip951)" />
  </g>
</svg>