<?xml version="1.0" encoding="utf-8"?>
<svg version="1.1" xmlns:xlink="http://www.w3.org/1999/xlink" width="395px" height="99px" xmlns="http://www.w3.org/2000/svg">
  <defs>
    <pattern id="BGPattern" patternUnits="userSpaceOnUse" alignment="0 0" imageRepeat="None" />
    <mask fill="white" id="Clip995">
      <path d="M 0 99  L 0 40  L 15 0  L 375 0  L 395 49.99999999999999  L 388 99  L 0 99  Z " fill-rule="evenodd" />
    </mask>
  </defs>
  <g transform="matrix(1 0 0 1 -15 -10 )">
    <path d="M 0 99  L 0 40  L 15 0  L 375 0  L 395 49.99999999999999  L 388 99  L 0 99  Z " fill-rule="nonzero" fill="rgba(252, 195, 111, 1)" stroke="none" transform="matrix(1 0 0 1 15 10 )" class="fill" />
    <path d="M 0 99  L 0 40  L 15 0  L 375 0  L 395 49.99999999999999  L 388 99  L 0 99  Z " stroke-width="0" stroke-dasharray="0" stroke="rgba(121, 121, 121, 1)" fill="none" transform="matrix(1 0 0 1 15 10 )" class="stroke" mask="url(#Clip995)" />
  </g>
</svg>