<?xml version="1.0" encoding="utf-8"?>
<svg version="1.1" xmlns:xlink="http://www.w3.org/1999/xlink" width="20px" height="24px" xmlns="http://www.w3.org/2000/svg">
  <defs>
    <pattern id="BGPattern" patternUnits="userSpaceOnUse" alignment="0 0" imageRepeat="None" />
    <mask fill="white" id="Clip999">
      <path d="M 5.555555555555555 7.636363636363638  L 5.555555555555555 10.90909090909091  L 14.444444444444445 10.90909090909091  L 14.444444444444445 7.636363636363638  C 14.444444444444445 6.431818181818181  14.010416666666668 5.40340909090909  13.14236111111111 4.551136363636362  C 12.274305555555555 3.6988636363636376  11.226851851851853 3.2727272727272725  10 3.2727272727272725  C 8.773148148148149 3.2727272727272725  7.725694444444445 3.6988636363636376  6.857638888888888 4.551136363636362  C 5.989583333333334 5.40340909090909  5.555555555555555 6.431818181818181  5.555555555555555 7.636363636363638  Z M 19.51388888888889 11.386363636363637  C 19.837962962962965 11.704545454545453  20 12.090909090909088  20 12.545454545454545  L 20 22.363636363636367  C 20 22.81818181818182  19.837962962962965 23.204545454545453  19.51388888888889 23.522727272727273  C 19.189814814814817 23.840909090909093  18.796296296296298 24  18.333333333333332 24  L 1.6666666666666665 24  C 1.203703703703704 24  0.8101851851851853 23.840909090909093  0.4861111111111111 23.522727272727273  C 0.16203703703703703 23.204545454545453  0 22.81818181818182  0 22.363636363636367  L 0 12.545454545454545  C 0 12.090909090909088  0.16203703703703703 11.704545454545453  0.4861111111111111 11.386363636363637  C 0.8101851851851853 11.068181818181818  1.203703703703704 10.90909090909091  1.6666666666666665 10.90909090909091  L 2.2222222222222223 10.90909090909091  L 2.2222222222222223 7.636363636363638  C 2.2222222222222223 5.545454545454543  2.986111111111111 3.75  4.513888888888889 2.25  C 6.041666666666666 0.75  7.870370370370371 0  10 0  C 12.12962962962963 0  13.958333333333332 0.75  15.48611111111111 2.25  C 17.01388888888889 3.75  17.77777777777778 5.545454545454543  17.77777777777778 7.636363636363638  L 17.77777777777778 10.90909090909091  L 18.333333333333332 10.90909090909091  C 18.796296296296298 10.90909090909091  19.189814814814817 11.068181818181818  19.51388888888889 11.386363636363637  Z " fill-rule="evenodd" />
    </mask>
  </defs>
  <g transform="matrix(1 0 0 1 -65 -463 )">
    <path d="M 5.555555555555555 7.636363636363638  L 5.555555555555555 10.90909090909091  L 14.444444444444445 10.90909090909091  L 14.444444444444445 7.636363636363638  C 14.444444444444445 6.431818181818181  14.010416666666668 5.40340909090909  13.14236111111111 4.551136363636362  C 12.274305555555555 3.6988636363636376  11.226851851851853 3.2727272727272725  10 3.2727272727272725  C 8.773148148148149 3.2727272727272725  7.725694444444445 3.6988636363636376  6.857638888888888 4.551136363636362  C 5.989583333333334 5.40340909090909  5.555555555555555 6.431818181818181  5.555555555555555 7.636363636363638  Z M 19.51388888888889 11.386363636363637  C 19.837962962962965 11.704545454545453  20 12.090909090909088  20 12.545454545454545  L 20 22.363636363636367  C 20 22.81818181818182  19.837962962962965 23.204545454545453  19.51388888888889 23.522727272727273  C 19.189814814814817 23.840909090909093  18.796296296296298 24  18.333333333333332 24  L 1.6666666666666665 24  C 1.203703703703704 24  0.8101851851851853 23.840909090909093  0.4861111111111111 23.522727272727273  C 0.16203703703703703 23.204545454545453  0 22.81818181818182  0 22.363636363636367  L 0 12.545454545454545  C 0 12.090909090909088  0.16203703703703703 11.704545454545453  0.4861111111111111 11.386363636363637  C 0.8101851851851853 11.068181818181818  1.203703703703704 10.90909090909091  1.6666666666666665 10.90909090909091  L 2.2222222222222223 10.90909090909091  L 2.2222222222222223 7.636363636363638  C 2.2222222222222223 5.545454545454543  2.986111111111111 3.75  4.513888888888889 2.25  C 6.041666666666666 0.75  7.870370370370371 0  10 0  C 12.12962962962963 0  13.958333333333332 0.75  15.48611111111111 2.25  C 17.01388888888889 3.75  17.77777777777778 5.545454545454543  17.77777777777778 7.636363636363638  L 17.77777777777778 10.90909090909091  L 18.333333333333332 10.90909090909091  C 18.796296296296298 10.90909090909091  19.189814814814817 11.068181818181818  19.51388888888889 11.386363636363637  Z " fill-rule="nonzero" fill="rgba(170, 170, 170, 1)" stroke="none" transform="matrix(1 0 0 1 65 463 )" class="fill" />
    <path d="M 5.555555555555555 7.636363636363638  L 5.555555555555555 10.90909090909091  L 14.444444444444445 10.90909090909091  L 14.444444444444445 7.636363636363638  C 14.444444444444445 6.431818181818181  14.010416666666668 5.40340909090909  13.14236111111111 4.551136363636362  C 12.274305555555555 3.6988636363636376  11.226851851851853 3.2727272727272725  10 3.2727272727272725  C 8.773148148148149 3.2727272727272725  7.725694444444445 3.6988636363636376  6.857638888888888 4.551136363636362  C 5.989583333333334 5.40340909090909  5.555555555555555 6.431818181818181  5.555555555555555 7.636363636363638  Z " stroke-width="0" stroke-dasharray="0" stroke="rgba(255, 255, 255, 0)" fill="none" transform="matrix(1 0 0 1 65 463 )" class="stroke" mask="url(#Clip999)" />
    <path d="M 19.51388888888889 11.386363636363637  C 19.837962962962965 11.704545454545453  20 12.090909090909088  20 12.545454545454545  L 20 22.363636363636367  C 20 22.81818181818182  19.837962962962965 23.204545454545453  19.51388888888889 23.522727272727273  C 19.189814814814817 23.840909090909093  18.796296296296298 24  18.333333333333332 24  L 1.6666666666666665 24  C 1.203703703703704 24  0.8101851851851853 23.840909090909093  0.4861111111111111 23.522727272727273  C 0.16203703703703703 23.204545454545453  0 22.81818181818182  0 22.363636363636367  L 0 12.545454545454545  C 0 12.090909090909088  0.16203703703703703 11.704545454545453  0.4861111111111111 11.386363636363637  C 0.8101851851851853 11.068181818181818  1.203703703703704 10.90909090909091  1.6666666666666665 10.90909090909091  L 2.2222222222222223 10.90909090909091  L 2.2222222222222223 7.636363636363638  C 2.2222222222222223 5.545454545454543  2.986111111111111 3.75  4.513888888888889 2.25  C 6.041666666666666 0.75  7.870370370370371 0  10 0  C 12.12962962962963 0  13.958333333333332 0.75  15.48611111111111 2.25  C 17.01388888888889 3.75  17.77777777777778 5.545454545454543  17.77777777777778 7.636363636363638  L 17.77777777777778 10.90909090909091  L 18.333333333333332 10.90909090909091  C 18.796296296296298 10.90909090909091  19.189814814814817 11.068181818181818  19.51388888888889 11.386363636363637  Z " stroke-width="0" stroke-dasharray="0" stroke="rgba(255, 255, 255, 0)" fill="none" transform="matrix(1 0 0 1 65 463 )" class="stroke" mask="url(#Clip999)" />
  </g>
</svg>