<?xml version="1.0" encoding="utf-8"?>
<svg version="1.1" xmlns:xlink="http://www.w3.org/1999/xlink" width="15px" height="24px" xmlns="http://www.w3.org/2000/svg">
  <defs>
    <pattern id="BGPattern" patternUnits="userSpaceOnUse" alignment="0 0" imageRepeat="None" />
    <mask fill="white" id="Clip998">
      <path d="M 8.603515625 22.659374999999997  C 8.909505208333334 22.365625  9.0625 22.012500000000003  9.0625 21.6  C 9.0625 21.1875  8.909505208333334 20.834375  8.603515625 20.540625  C 8.297526041666666 20.246874999999996  7.929687500000001 20.1  7.5 20.1  C 7.0703125 20.1  6.702473958333334 20.246874999999996  6.396484375 20.540625  C 6.090494791666668 20.834375  5.9375 21.1875  5.9375 21.6  C 5.9375 22.012500000000003  6.090494791666668 22.365625  6.396484375 22.659374999999997  C 6.702473958333334 22.953125  7.0703125 23.1  7.5 23.1  C 7.929687500000001 23.1  8.297526041666666 22.953125  8.603515625 22.659374999999997  Z M 12.939453125 19.021875  C 13.063151041666668 18.903124999999996  13.125 18.762499999999996  13 18.6  L 13 5.3999999999999995  C 13.125 5.237499999999998  13.063151041666668 5.096874999999998  12.939453125 4.9781249999999995  C 12.815755208333336 4.859374999999998  12.669270833333336 4.799999999999999  12.5 5  L 2.5 5  C 2.3307291666666665 4.799999999999999  2.1842447916666665 4.859374999999998  2.060546875 4.9781249999999995  C 1.936848958333333 5.096874999999998  1.875 5.237499999999998  2 5.3999999999999995  L 2 18.6  C 1.875 18.762499999999996  1.936848958333333 18.903124999999996  2.060546875 19.021875  C 2.1842447916666665 19.140625  2.3307291666666665 19.200000000000003  2.5 19  L 12.5 19  C 12.669270833333336 19.200000000000003  12.815755208333336 19.140625  12.939453125 19.021875  Z M 9.0625 3  C 9.270833333333336 3  9.375000000000002 2.8999999999999977  9.375 2.700000000000001  C 9.375000000000002 2.499999999999999  9.270833333333336 2.3999999999999995  9.0625 2.3999999999999995  L 5.9375 2.3999999999999995  C 5.729166666666667 2.3999999999999995  5.625 2.499999999999999  5.625 2.700000000000001  C 5.625 2.8999999999999977  5.729166666666667 3  5.9375 3  L 9.0625 3  Z M 14.2578125 0.7124999999999995  C 14.752604166666664 1.1874999999999991  15 1.7499999999999991  15 2.3999999999999995  L 15 21.6  C 15 22.25  14.752604166666664 22.8125  14.2578125 23.2875  C 13.763020833333336 23.762499999999996  13.177083333333336 24  12.5 24  L 2.5 24  C 1.822916666666667 24  1.2369791666666667 23.762499999999996  0.7421875 23.2875  C 0.24739583333333334 22.8125  0 22.25  0 21.6  L 0 2.3999999999999995  C 0 1.7499999999999991  0.24739583333333334 1.1874999999999991  0.7421875 0.7124999999999995  C 1.2369791666666667 0.23749999999999716  1.822916666666667 0  2.5 0  L 12.5 0  C 13.177083333333336 0  13.763020833333336 0.23749999999999716  14.2578125 0.7124999999999995  Z " fill-rule="evenodd" />
    </mask>
  </defs>
  <g transform="matrix(1 0 0 1 -65 -400 )">
    <path d="M 8.603515625 22.659374999999997  C 8.909505208333334 22.365625  9.0625 22.012500000000003  9.0625 21.6  C 9.0625 21.1875  8.909505208333334 20.834375  8.603515625 20.540625  C 8.297526041666666 20.246874999999996  7.929687500000001 20.1  7.5 20.1  C 7.0703125 20.1  6.702473958333334 20.246874999999996  6.396484375 20.540625  C 6.090494791666668 20.834375  5.9375 21.1875  5.9375 21.6  C 5.9375 22.012500000000003  6.090494791666668 22.365625  6.396484375 22.659374999999997  C 6.702473958333334 22.953125  7.0703125 23.1  7.5 23.1  C 7.929687500000001 23.1  8.297526041666666 22.953125  8.603515625 22.659374999999997  Z M 12.939453125 19.021875  C 13.063151041666668 18.903124999999996  13.125 18.762499999999996  13 18.6  L 13 5.3999999999999995  C 13.125 5.237499999999998  13.063151041666668 5.096874999999998  12.939453125 4.9781249999999995  C 12.815755208333336 4.859374999999998  12.669270833333336 4.799999999999999  12.5 5  L 2.5 5  C 2.3307291666666665 4.799999999999999  2.1842447916666665 4.859374999999998  2.060546875 4.9781249999999995  C 1.936848958333333 5.096874999999998  1.875 5.237499999999998  2 5.3999999999999995  L 2 18.6  C 1.875 18.762499999999996  1.936848958333333 18.903124999999996  2.060546875 19.021875  C 2.1842447916666665 19.140625  2.3307291666666665 19.200000000000003  2.5 19  L 12.5 19  C 12.669270833333336 19.200000000000003  12.815755208333336 19.140625  12.939453125 19.021875  Z M 9.0625 3  C 9.270833333333336 3  9.375000000000002 2.8999999999999977  9.375 2.700000000000001  C 9.375000000000002 2.499999999999999  9.270833333333336 2.3999999999999995  9.0625 2.3999999999999995  L 5.9375 2.3999999999999995  C 5.729166666666667 2.3999999999999995  5.625 2.499999999999999  5.625 2.700000000000001  C 5.625 2.8999999999999977  5.729166666666667 3  5.9375 3  L 9.0625 3  Z M 14.2578125 0.7124999999999995  C 14.752604166666664 1.1874999999999991  15 1.7499999999999991  15 2.3999999999999995  L 15 21.6  C 15 22.25  14.752604166666664 22.8125  14.2578125 23.2875  C 13.763020833333336 23.762499999999996  13.177083333333336 24  12.5 24  L 2.5 24  C 1.822916666666667 24  1.2369791666666667 23.762499999999996  0.7421875 23.2875  C 0.24739583333333334 22.8125  0 22.25  0 21.6  L 0 2.3999999999999995  C 0 1.7499999999999991  0.24739583333333334 1.1874999999999991  0.7421875 0.7124999999999995  C 1.2369791666666667 0.23749999999999716  1.822916666666667 0  2.5 0  L 12.5 0  C 13.177083333333336 0  13.763020833333336 0.23749999999999716  14.2578125 0.7124999999999995  Z " fill-rule="nonzero" fill="rgba(170, 170, 170, 1)" stroke="none" transform="matrix(1 0 0 1 65 400 )" class="fill" />
    <path d="M 8.603515625 22.659374999999997  C 8.909505208333334 22.365625  9.0625 22.012500000000003  9.0625 21.6  C 9.0625 21.1875  8.909505208333334 20.834375  8.603515625 20.540625  C 8.297526041666666 20.246874999999996  7.929687500000001 20.1  7.5 20.1  C 7.0703125 20.1  6.702473958333334 20.246874999999996  6.396484375 20.540625  C 6.090494791666668 20.834375  5.9375 21.1875  5.9375 21.6  C 5.9375 22.012500000000003  6.090494791666668 22.365625  6.396484375 22.659374999999997  C 6.702473958333334 22.953125  7.0703125 23.1  7.5 23.1  C 7.929687500000001 23.1  8.297526041666666 22.953125  8.603515625 22.659374999999997  Z " stroke-width="0" stroke-dasharray="0" stroke="rgba(255, 255, 255, 0)" fill="none" transform="matrix(1 0 0 1 65 400 )" class="stroke" mask="url(#Clip998)" />
    <path d="M 12.939453125 19.021875  C 13.063151041666668 18.903124999999996  13.125 18.762499999999996  13 18.6  L 13 5.3999999999999995  C 13.125 5.237499999999998  13.063151041666668 5.096874999999998  12.939453125 4.9781249999999995  C 12.815755208333336 4.859374999999998  12.669270833333336 4.799999999999999  12.5 5  L 2.5 5  C 2.3307291666666665 4.799999999999999  2.1842447916666665 4.859374999999998  2.060546875 4.9781249999999995  C 1.936848958333333 5.096874999999998  1.875 5.237499999999998  2 5.3999999999999995  L 2 18.6  C 1.875 18.762499999999996  1.936848958333333 18.903124999999996  2.060546875 19.021875  C 2.1842447916666665 19.140625  2.3307291666666665 19.200000000000003  2.5 19  L 12.5 19  C 12.669270833333336 19.200000000000003  12.815755208333336 19.140625  12.939453125 19.021875  Z " stroke-width="0" stroke-dasharray="0" stroke="rgba(255, 255, 255, 0)" fill="none" transform="matrix(1 0 0 1 65 400 )" class="stroke" mask="url(#Clip998)" />
    <path d="M 9.0625 3  C 9.270833333333336 3  9.375000000000002 2.8999999999999977  9.375 2.700000000000001  C 9.375000000000002 2.499999999999999  9.270833333333336 2.3999999999999995  9.0625 2.3999999999999995  L 5.9375 2.3999999999999995  C 5.729166666666667 2.3999999999999995  5.625 2.499999999999999  5.625 2.700000000000001  C 5.625 2.8999999999999977  5.729166666666667 3  5.9375 3  L 9.0625 3  Z " stroke-width="0" stroke-dasharray="0" stroke="rgba(255, 255, 255, 0)" fill="none" transform="matrix(1 0 0 1 65 400 )" class="stroke" mask="url(#Clip998)" />
    <path d="M 14.2578125 0.7124999999999995  C 14.752604166666664 1.1874999999999991  15 1.7499999999999991  15 2.3999999999999995  L 15 21.6  C 15 22.25  14.752604166666664 22.8125  14.2578125 23.2875  C 13.763020833333336 23.762499999999996  13.177083333333336 24  12.5 24  L 2.5 24  C 1.822916666666667 24  1.2369791666666667 23.762499999999996  0.7421875 23.2875  C 0.24739583333333334 22.8125  0 22.25  0 21.6  L 0 2.3999999999999995  C 0 1.7499999999999991  0.24739583333333334 1.1874999999999991  0.7421875 0.7124999999999995  C 1.2369791666666667 0.23749999999999716  1.822916666666667 0  2.5 0  L 12.5 0  C 13.177083333333336 0  13.763020833333336 0.23749999999999716  14.2578125 0.7124999999999995  Z " stroke-width="0" stroke-dasharray="0" stroke="rgba(255, 255, 255, 0)" fill="none" transform="matrix(1 0 0 1 65 400 )" class="stroke" mask="url(#Clip998)" />
  </g>
</svg>