<?xml version="1.0" encoding="utf-8"?>
<svg version="1.1" xmlns:xlink="http://www.w3.org/1999/xlink" width="35px" height="35px" xmlns="http://www.w3.org/2000/svg">
  <defs>
    <pattern id="BGPattern" patternUnits="userSpaceOnUse" alignment="0 0" imageRepeat="None" />
    <mask fill="white" id="Clip996">
      <path d="M 0 17.5  C 0 7.699999999999999  7.699999999999999 0  17.5 0  C 27.3 0  35 7.699999999999999  35 17.5  C 35 27.3  27.3 35  17.5 35  C 7.699999999999999 35  0 27.3  0 17.5  Z " fill-rule="evenodd" />
    </mask>
  </defs>
  <g transform="matrix(1 0 0 1 -190 -752 )">
    <path d="M 0 17.5  C 0 7.699999999999999  7.699999999999999 0  17.5 0  C 27.3 0  35 7.699999999999999  35 17.5  C 35 27.3  27.3 35  17.5 35  C 7.699999999999999 35  0 27.3  0 17.5  Z " fill-rule="nonzero" fill="rgba(127, 127, 127, 1)" stroke="none" transform="matrix(1 0 0 1 190 752 )" class="fill" />
    <path d="M 0 17.5  C 0 7.699999999999999  7.699999999999999 0  17.5 0  C 27.3 0  35 7.699999999999999  35 17.5  C 35 27.3  27.3 35  17.5 35  C 7.699999999999999 35  0 27.3  0 17.5  Z " stroke-width="0" stroke-dasharray="0" stroke="rgba(121, 121, 121, 1)" fill="none" transform="matrix(1 0 0 1 190 752 )" class="stroke" mask="url(#Clip996)" />
  </g>
</svg>